<mxfile host="app.diagrams.net" agent="Mozilla/5.0 (Macintosh; Intel Mac OS X 10_15_7) AppleWebKit/537.36 (KHTML, like Gecko) Chrome/133.0.0.0 Safari/537.36" version="26.0.14" pages="4">
  <diagram name="[0] Cli plugins" id="FyxOA19ZdZb6XShkcGTg">
    <mxGraphModel dx="847" dy="471" grid="0" gridSize="2" guides="1" tooltips="1" connect="1" arrows="1" fold="1" page="1" pageScale="1" pageWidth="3300" pageHeight="4681" background="#4D5766" math="0" shadow="0">
      <root>
        <mxCell id="v35DyY4_wD7kl4gQBfIq-0" />
        <mxCell id="v35DyY4_wD7kl4gQBfIq-1" parent="v35DyY4_wD7kl4gQBfIq-0" />
        <mxCell id="3NR0YSU2vHcT9yE99jEo-3" value="" style="rounded=1;whiteSpace=wrap;html=1;fillColor=none;strokeColor=#EDF3F5;dashed=1;" parent="v35DyY4_wD7kl4gQBfIq-1" vertex="1">
          <mxGeometry x="1603" y="1804.5" width="143" height="68" as="geometry" />
        </mxCell>
        <mxCell id="cjOOpPMKw65pERf4yYbk-2" value="&lt;b&gt;global&lt;br&gt;&lt;/b&gt;commands" style="rounded=1;whiteSpace=wrap;html=1;strokeColor=#BEC8D2;fontFamily=Google Sans;fontSource=https%3A%2F%2Ffonts.googleapis.com%2Fcss%3Ffamily%3DGoogle%2BSans;fillColor=#EDF3F5;" parent="v35DyY4_wD7kl4gQBfIq-1" vertex="1">
          <mxGeometry x="1452" y="1651" width="129" height="40" as="geometry" />
        </mxCell>
        <mxCell id="cjOOpPMKw65pERf4yYbk-3" value="&lt;b&gt;tools&lt;br&gt;&lt;/b&gt;commands" style="rounded=1;whiteSpace=wrap;html=1;strokeColor=#BEC8D2;fontFamily=Google Sans;fontSource=https%3A%2F%2Ffonts.googleapis.com%2Fcss%3Ffamily%3DGoogle%2BSans;fillColor=#EDF3F5;" parent="v35DyY4_wD7kl4gQBfIq-1" vertex="1">
          <mxGeometry x="1617" y="1651" width="129" height="40" as="geometry" />
        </mxCell>
        <mxCell id="cjOOpPMKw65pERf4yYbk-4" value="" style="endArrow=block;html=1;rounded=0;entryX=0.5;entryY=0;entryDx=0;entryDy=0;exitX=0.25;exitY=1;exitDx=0;exitDy=0;strokeColor=#EDF3F5;endFill=1;curved=1;" parent="v35DyY4_wD7kl4gQBfIq-1" source="cjOOpPMKw65pERf4yYbk-0" target="cjOOpPMKw65pERf4yYbk-1" edge="1">
          <mxGeometry width="50" height="50" relative="1" as="geometry">
            <mxPoint x="1312" y="1631" as="sourcePoint" />
            <mxPoint x="1362" y="1581" as="targetPoint" />
            <Array as="points">
              <mxPoint x="1475" y="1603" />
              <mxPoint x="1398" y="1605" />
            </Array>
          </mxGeometry>
        </mxCell>
        <mxCell id="cjOOpPMKw65pERf4yYbk-0" value="&lt;b&gt;CLI ENGINE&lt;/b&gt;" style="rounded=1;whiteSpace=wrap;html=1;strokeColor=#BEC8D2;fontFamily=Google Sans;fontSource=https%3A%2F%2Ffonts.googleapis.com%2Fcss%3Ffamily%3DGoogle%2BSans;fillColor=#EDF3F5;" parent="v35DyY4_wD7kl4gQBfIq-1" vertex="1">
          <mxGeometry x="1452" y="1549" width="129" height="40" as="geometry" />
        </mxCell>
        <mxCell id="cjOOpPMKw65pERf4yYbk-5" value="&lt;font style=&quot;color: rgb(190, 200, 210);&quot;&gt;&lt;b&gt;configuration&lt;br&gt;&lt;/b&gt;commands&lt;/font&gt;" style="rounded=1;whiteSpace=wrap;html=1;strokeColor=#BEC8D2;fontFamily=Google Sans;fontSource=https%3A%2F%2Ffonts.googleapis.com%2Fcss%3Ffamily%3DGoogle%2BSans;fillColor=#EDF3F5;gradientColor=none;opacity=40;dashed=1;" parent="v35DyY4_wD7kl4gQBfIq-1" vertex="1">
          <mxGeometry x="1285" y="1586" width="85" height="40" as="geometry" />
        </mxCell>
        <mxCell id="cjOOpPMKw65pERf4yYbk-7" value="" style="endArrow=block;html=1;rounded=0;exitX=0.5;exitY=1;exitDx=0;exitDy=0;entryX=0.5;entryY=0;entryDx=0;entryDy=0;strokeColor=#EDF3F5;align=center;verticalAlign=middle;fontFamily=Helvetica;fontSize=11;fontColor=default;labelBackgroundColor=default;endFill=1;curved=1;" parent="v35DyY4_wD7kl4gQBfIq-1" source="cjOOpPMKw65pERf4yYbk-0" target="cjOOpPMKw65pERf4yYbk-2" edge="1">
          <mxGeometry width="50" height="50" relative="1" as="geometry">
            <mxPoint x="1587" y="1652" as="sourcePoint" />
            <mxPoint x="1637" y="1602" as="targetPoint" />
          </mxGeometry>
        </mxCell>
        <mxCell id="cjOOpPMKw65pERf4yYbk-8" value="" style="endArrow=block;html=1;rounded=0;exitX=0.75;exitY=1;exitDx=0;exitDy=0;entryX=0.5;entryY=0;entryDx=0;entryDy=0;strokeColor=#EDF3F5;align=center;verticalAlign=middle;fontFamily=Helvetica;fontSize=11;fontColor=default;labelBackgroundColor=default;endFill=1;curved=1;" parent="v35DyY4_wD7kl4gQBfIq-1" source="cjOOpPMKw65pERf4yYbk-0" target="cjOOpPMKw65pERf4yYbk-3" edge="1">
          <mxGeometry width="50" height="50" relative="1" as="geometry">
            <mxPoint x="1602" y="1589" as="sourcePoint" />
            <mxPoint x="1602" y="1651" as="targetPoint" />
            <Array as="points">
              <mxPoint x="1573" y="1606" />
              <mxPoint x="1640" y="1602" />
            </Array>
          </mxGeometry>
        </mxCell>
        <mxCell id="cjOOpPMKw65pERf4yYbk-10" value="" style="endArrow=none;html=1;strokeWidth=1;rounded=0;strokeColor=#EDF3F5;entryX=0.068;entryY=0.991;entryDx=0;entryDy=0;entryPerimeter=0;exitX=0;exitY=0.5;exitDx=0;exitDy=0;fontFamily=Google Sans;fontSource=https%3A%2F%2Ffonts.googleapis.com%2Fcss%3Ffamily%3DGoogle%2BSans;" parent="v35DyY4_wD7kl4gQBfIq-1" source="cjOOpPMKw65pERf4yYbk-9" target="cjOOpPMKw65pERf4yYbk-1" edge="1">
          <mxGeometry width="50" height="50" relative="1" as="geometry">
            <mxPoint x="1315" y="1739" as="sourcePoint" />
            <mxPoint x="1294" y="1700" as="targetPoint" />
            <Array as="points">
              <mxPoint x="1294" y="1720" />
            </Array>
          </mxGeometry>
        </mxCell>
        <mxCell id="cjOOpPMKw65pERf4yYbk-9" value="show version" style="rounded=1;whiteSpace=wrap;html=1;strokeColor=#BEC8D2;fontFamily=Fira Code;fontSource=https%3A%2F%2Ffonts.googleapis.com%2Fcss%3Ffamily%3DFira%2BCode;fillColor=#273142;opacity=90;fontColor=#EDF3F5;align=left;spacingLeft=2;fontSize=10;" parent="v35DyY4_wD7kl4gQBfIq-1" vertex="1">
          <mxGeometry x="1310" y="1707" width="104" height="26" as="geometry" />
        </mxCell>
        <mxCell id="cjOOpPMKw65pERf4yYbk-1" value="&lt;b&gt;show&lt;br&gt;&lt;/b&gt;commands" style="rounded=1;whiteSpace=wrap;html=1;strokeColor=#BEC8D2;fontFamily=Google Sans;fontSource=https%3A%2F%2Ffonts.googleapis.com%2Fcss%3Ffamily%3DGoogle%2BSans;fillColor=#EDF3F5;" parent="v35DyY4_wD7kl4gQBfIq-1" vertex="1">
          <mxGeometry x="1285" y="1651" width="129" height="40" as="geometry" />
        </mxCell>
        <mxCell id="cjOOpPMKw65pERf4yYbk-12" value="show uptime" style="rounded=1;whiteSpace=wrap;html=1;strokeColor=#FFFFFF;fontFamily=Fira Code;fontSource=https%3A%2F%2Ffonts.googleapis.com%2Fcss%3Ffamily%3DFira%2BCode;fillColor=#00C9FF;opacity=90;fontColor=#273142;align=left;verticalAlign=middle;spacingLeft=2;fontSize=10;" parent="v35DyY4_wD7kl4gQBfIq-1" vertex="1">
          <mxGeometry x="1310" y="1744" width="104" height="26" as="geometry" />
        </mxCell>
        <mxCell id="cjOOpPMKw65pERf4yYbk-13" value="" style="endArrow=none;html=1;strokeWidth=1;rounded=0;strokeColor=#EDF3F5;entryX=0.068;entryY=0.991;entryDx=0;entryDy=0;entryPerimeter=0;exitX=0;exitY=0.5;exitDx=0;exitDy=0;fontFamily=Google Sans;fontSource=https%3A%2F%2Ffonts.googleapis.com%2Fcss%3Ffamily%3DGoogle%2BSans;" parent="v35DyY4_wD7kl4gQBfIq-1" source="cjOOpPMKw65pERf4yYbk-12" edge="1">
          <mxGeometry width="50" height="50" relative="1" as="geometry">
            <mxPoint x="1310" y="1720" as="sourcePoint" />
            <mxPoint x="1294" y="1691" as="targetPoint" />
            <Array as="points">
              <mxPoint x="1294" y="1757" />
            </Array>
          </mxGeometry>
        </mxCell>
        <mxCell id="cjOOpPMKw65pERf4yYbk-14" value="" style="endArrow=none;html=1;strokeWidth=1;rounded=0;strokeColor=#EDF3F5;entryX=0.068;entryY=0.991;entryDx=0;entryDy=0;entryPerimeter=0;exitX=0;exitY=0.5;exitDx=0;exitDy=0;fontFamily=Google Sans;fontSource=https%3A%2F%2Ffonts.googleapis.com%2Fcss%3Ffamily%3DGoogle%2BSans;" parent="v35DyY4_wD7kl4gQBfIq-1" source="cjOOpPMKw65pERf4yYbk-15" edge="1">
          <mxGeometry width="50" height="50" relative="1" as="geometry">
            <mxPoint x="1482" y="1739" as="sourcePoint" />
            <mxPoint x="1461" y="1691" as="targetPoint" />
            <Array as="points">
              <mxPoint x="1461" y="1720" />
            </Array>
          </mxGeometry>
        </mxCell>
        <mxCell id="cjOOpPMKw65pERf4yYbk-15" value="file ls /etc" style="rounded=1;whiteSpace=wrap;html=1;strokeColor=#BEC8D2;fontFamily=Fira Code;fontSource=https%3A%2F%2Ffonts.googleapis.com%2Fcss%3Ffamily%3DFira%2BCode;fillColor=#273142;opacity=90;fontColor=#EDF3F5;align=left;spacingLeft=2;fontSize=10;" parent="v35DyY4_wD7kl4gQBfIq-1" vertex="1">
          <mxGeometry x="1477" y="1707" width="104" height="26" as="geometry" />
        </mxCell>
        <mxCell id="cjOOpPMKw65pERf4yYbk-16" value="post http://url" style="rounded=1;whiteSpace=wrap;html=1;strokeColor=#FFFFFF;fontFamily=Fira Code;fontSource=https%3A%2F%2Ffonts.googleapis.com%2Fcss%3Ffamily%3DFira%2BCode;fillColor=#00C9FF;opacity=90;fontColor=#273142;align=left;verticalAlign=middle;spacingLeft=2;fontSize=10;" parent="v35DyY4_wD7kl4gQBfIq-1" vertex="1">
          <mxGeometry x="1477" y="1744" width="104" height="26" as="geometry" />
        </mxCell>
        <mxCell id="cjOOpPMKw65pERf4yYbk-17" value="" style="endArrow=none;html=1;strokeWidth=1;rounded=0;strokeColor=#EDF3F5;entryX=0.068;entryY=0.991;entryDx=0;entryDy=0;entryPerimeter=0;exitX=0;exitY=0.5;exitDx=0;exitDy=0;fontFamily=Google Sans;fontSource=https%3A%2F%2Ffonts.googleapis.com%2Fcss%3Ffamily%3DGoogle%2BSans;" parent="v35DyY4_wD7kl4gQBfIq-1" source="cjOOpPMKw65pERf4yYbk-16" edge="1">
          <mxGeometry width="50" height="50" relative="1" as="geometry">
            <mxPoint x="1477" y="1720" as="sourcePoint" />
            <mxPoint x="1461" y="1691" as="targetPoint" />
            <Array as="points">
              <mxPoint x="1461" y="1757" />
            </Array>
          </mxGeometry>
        </mxCell>
        <mxCell id="cjOOpPMKw65pERf4yYbk-18" value="" style="endArrow=none;html=1;strokeWidth=1;rounded=0;strokeColor=#EDF3F5;entryX=0.068;entryY=0.991;entryDx=0;entryDy=0;entryPerimeter=0;exitX=0;exitY=0.5;exitDx=0;exitDy=0;fontFamily=Google Sans;fontSource=https%3A%2F%2Ffonts.googleapis.com%2Fcss%3Ffamily%3DGoogle%2BSans;" parent="v35DyY4_wD7kl4gQBfIq-1" source="cjOOpPMKw65pERf4yYbk-19" edge="1">
          <mxGeometry width="50" height="50" relative="1" as="geometry">
            <mxPoint x="1647" y="1739" as="sourcePoint" />
            <mxPoint x="1626" y="1691" as="targetPoint" />
            <Array as="points">
              <mxPoint x="1626" y="1720" />
            </Array>
          </mxGeometry>
        </mxCell>
        <mxCell id="cjOOpPMKw65pERf4yYbk-19" value="tools platform chassis reboot" style="rounded=1;whiteSpace=wrap;html=1;strokeColor=#BEC8D2;fontFamily=Fira Code;fontSource=https%3A%2F%2Ffonts.googleapis.com%2Fcss%3Ffamily%3DFira%2BCode;fillColor=#273142;opacity=90;fontColor=#EDF3F5;align=left;spacingLeft=2;fontSize=10;" parent="v35DyY4_wD7kl4gQBfIq-1" vertex="1">
          <mxGeometry x="1642" y="1707" width="104" height="26" as="geometry" />
        </mxCell>
        <mxCell id="cjOOpPMKw65pERf4yYbk-20" value="tools interface bounce" style="rounded=1;whiteSpace=wrap;html=1;strokeColor=#FFFFFF;fontFamily=Fira Code;fontSource=https%3A%2F%2Ffonts.googleapis.com%2Fcss%3Ffamily%3DFira%2BCode;fillColor=#00C9FF;opacity=90;fontColor=#273142;align=left;verticalAlign=middle;spacingLeft=2;fontSize=10;" parent="v35DyY4_wD7kl4gQBfIq-1" vertex="1">
          <mxGeometry x="1642" y="1744" width="104" height="26" as="geometry" />
        </mxCell>
        <mxCell id="cjOOpPMKw65pERf4yYbk-21" value="" style="endArrow=none;html=1;strokeWidth=1;rounded=0;strokeColor=#EDF3F5;entryX=0.068;entryY=0.991;entryDx=0;entryDy=0;entryPerimeter=0;exitX=0;exitY=0.5;exitDx=0;exitDy=0;fontFamily=Google Sans;fontSource=https%3A%2F%2Ffonts.googleapis.com%2Fcss%3Ffamily%3DGoogle%2BSans;" parent="v35DyY4_wD7kl4gQBfIq-1" source="cjOOpPMKw65pERf4yYbk-20" edge="1">
          <mxGeometry width="50" height="50" relative="1" as="geometry">
            <mxPoint x="1642" y="1720" as="sourcePoint" />
            <mxPoint x="1626" y="1691" as="targetPoint" />
            <Array as="points">
              <mxPoint x="1626" y="1757" />
            </Array>
          </mxGeometry>
        </mxCell>
        <mxCell id="cjOOpPMKw65pERf4yYbk-22" value="" style="rounded=1;whiteSpace=wrap;html=1;strokeColor=#FFFFFF;fontFamily=Fira Code;fontSource=https%3A%2F%2Ffonts.googleapis.com%2Fcss%3Ffamily%3DFira%2BCode;fillColor=#00C9FF;opacity=90;fontColor=#EDF3F5;align=left;verticalAlign=middle;spacingLeft=2;fontSize=10;" parent="v35DyY4_wD7kl4gQBfIq-1" vertex="1">
          <mxGeometry x="1618" y="1844.5" width="20" height="20" as="geometry" />
        </mxCell>
        <mxCell id="3NR0YSU2vHcT9yE99jEo-0" value="&lt;font&gt;Custom command&lt;/font&gt;" style="text;html=1;align=left;verticalAlign=middle;resizable=0;points=[];autosize=1;strokeColor=none;fillColor=none;fontSize=10;fontFamily=Google Sans;fontSource=https%3A%2F%2Ffonts.googleapis.com%2Fcss%3Ffamily%3DGoogle%2BSans;fontColor=#FFFFFF;" parent="v35DyY4_wD7kl4gQBfIq-1" vertex="1">
          <mxGeometry x="1644" y="1843.5" width="101" height="24" as="geometry" />
        </mxCell>
        <mxCell id="3NR0YSU2vHcT9yE99jEo-1" value="" style="rounded=1;whiteSpace=wrap;html=1;strokeColor=#BEC8D2;fontFamily=Fira Code;fontSource=https%3A%2F%2Ffonts.googleapis.com%2Fcss%3Ffamily%3DFira%2BCode;fillColor=#273142;opacity=90;fontColor=#EDF3F5;align=left;spacingLeft=2;fontSize=10;aspect=fixed;" parent="v35DyY4_wD7kl4gQBfIq-1" vertex="1">
          <mxGeometry x="1618" y="1817" width="20" height="20" as="geometry" />
        </mxCell>
        <mxCell id="3NR0YSU2vHcT9yE99jEo-2" value="&lt;font&gt;Native command&lt;/font&gt;" style="text;html=1;align=left;verticalAlign=middle;resizable=0;points=[];autosize=1;strokeColor=none;fillColor=none;fontSize=10;fontFamily=Google Sans;fontSource=https%3A%2F%2Ffonts.googleapis.com%2Fcss%3Ffamily%3DGoogle%2BSans;fontColor=#FFFFFF;" parent="v35DyY4_wD7kl4gQBfIq-1" vertex="1">
          <mxGeometry x="1644" y="1815.5" width="94" height="24" as="geometry" />
        </mxCell>
        <mxCell id="3NR0YSU2vHcT9yE99jEo-4" value="&lt;font style=&quot;font-size: 14px;&quot;&gt;LEGEND&lt;/font&gt;" style="text;html=1;align=left;verticalAlign=middle;resizable=0;points=[];autosize=1;strokeColor=none;fillColor=none;fontSize=14;fontFamily=Google Sans;fontSource=https%3A%2F%2Ffonts.googleapis.com%2Fcss%3Ffamily%3DGoogle%2BSans;fontColor=#FFFFFF;labelBackgroundColor=#4D5766;fontStyle=1" parent="v35DyY4_wD7kl4gQBfIq-1" vertex="1">
          <mxGeometry x="1608" y="1790" width="71" height="29" as="geometry" />
        </mxCell>
        <mxCell id="3NR0YSU2vHcT9yE99jEo-5" value="brief" style="rounded=1;whiteSpace=wrap;html=1;strokeColor=#FFFFFF;fontFamily=Fira Code;fontSource=https%3A%2F%2Ffonts.googleapis.com%2Fcss%3Ffamily%3DFira%2BCode;fillColor=#00C9FF;opacity=90;fontColor=#273142;align=left;verticalAlign=middle;spacingLeft=2;fontSize=10;" parent="v35DyY4_wD7kl4gQBfIq-1" vertex="1">
          <mxGeometry x="1331" y="1783" width="52" height="16" as="geometry" />
        </mxCell>
        <mxCell id="3NR0YSU2vHcT9yE99jEo-6" value="" style="endArrow=none;html=1;strokeWidth=1;rounded=0;strokeColor=#EDF3F5;entryX=0.068;entryY=0.991;entryDx=0;entryDy=0;entryPerimeter=0;exitX=0;exitY=0.5;exitDx=0;exitDy=0;fontFamily=Google Sans;fontSource=https%3A%2F%2Ffonts.googleapis.com%2Fcss%3Ffamily%3DGoogle%2BSans;" parent="v35DyY4_wD7kl4gQBfIq-1" source="3NR0YSU2vHcT9yE99jEo-5" edge="1">
          <mxGeometry width="50" height="50" relative="1" as="geometry">
            <mxPoint x="1332" y="1836" as="sourcePoint" />
            <mxPoint x="1316" y="1770" as="targetPoint" />
            <Array as="points">
              <mxPoint x="1316" y="1791" />
            </Array>
          </mxGeometry>
        </mxCell>
        <mxCell id="1pv9uvoy4DJZf9Z1PrCG-1" value="" style="group" parent="v35DyY4_wD7kl4gQBfIq-1" vertex="1" connectable="0">
          <mxGeometry x="1414" y="1750" width="13" height="15" as="geometry" />
        </mxCell>
        <mxCell id="1pv9uvoy4DJZf9Z1PrCG-0" value="" style="verticalLabelPosition=middle;verticalAlign=middle;html=1;shape=mxgraph.basic.rect;fillColor2=none;strokeWidth=1;size=16;indent=100;topLeftStyle=default;topRightStyle=rounded;strokeColor=light-dark(#eeeff0, #ededed);fillColor=#BEC8D2;bottomRightStyle=rounded;labelPosition=center;align=center;spacing=0;spacingRight=3;fontColor=#FFFFFF;rotation=0;horizontal=1;fontFamily=Google Sans;fontSource=https%3A%2F%2Ffonts.googleapis.com%2Fcss%3Ffamily%3DGoogle%2BSans;" parent="1pv9uvoy4DJZf9Z1PrCG-1" vertex="1">
          <mxGeometry width="13" height="15" as="geometry" />
        </mxCell>
        <mxCell id="3NR0YSU2vHcT9yE99jEo-7" value="" style="shape=image;verticalLabelPosition=bottom;labelBackgroundColor=default;verticalAlign=top;aspect=fixed;imageAspect=0;editableCssRules=.*;image=data:image/svg+xml,PHN2ZyB4bWxuczp4bGluaz0iaHR0cDovL3d3dy53My5vcmcvMTk5OS94bGluayIgeG1sbnM9Imh0dHA6Ly93d3cudzMub3JnLzIwMDAvc3ZnIiB2ZXJzaW9uPSIxLjEiIHZpZXdCb3g9IjAgMCAyNCAyNCIgaGVpZ2h0PSI4MDBweCIgd2lkdGg9IjgwMHB4Ij4mI3hhOyAgICA8dGl0bGU+cGx1Z2luXzJfbGluZTwvdGl0bGU+JiN4YTsgICAgPGcgZmlsbC1ydWxlPSJldmVub2RkIiBmaWxsPSJub25lIiBzdHJva2Utd2lkdGg9IjEiIHN0cm9rZT0ibm9uZSIgaWQ9Iumhtemdoi0xIj4mI3hhOyAgICAgICAgPGcgdHJhbnNmb3JtPSJ0cmFuc2xhdGUoLTMzNi4wMDAwMDAsIC0xOTIuMDAwMDAwKSIgaWQ9IkRldmljZSI+JiN4YTsgICAgICAgICAgICA8ZyB0cmFuc2Zvcm09InRyYW5zbGF0ZSgzMzYuMDAwMDAwLCAxOTIuMDAwMDAwKSIgaWQ9InBsdWdpbl8yX2xpbmUiPiYjeGE7ICAgICAgICAgICAgICAgIDxwYXRoIGZpbGwtcnVsZT0ibm9uemVybyIgaWQ9Ik1pbmdDdXRlIiBkPSJNMjQsMCBMMjQsMjQgTDAsMjQgTDAsMCBMMjQsMCBaIE0xMi41OTM0OTAxLDIzLjI1Nzg0MSBMMTIuNTgxOTQwMiwyMy4yNTk1MTMxIEwxMi41MTA4Nzc3LDIzLjI5NTA0MzkgTDEyLjQ5MTg3OTEsMjMuMjk4NzQ2OSBMMTIuNDkxODc5MSwyMy4yOTg3NDY5IEwxMi40NzY3MTUyLDIzLjI5NTA0MzkgTDEyLjQwNTY1NDgsMjMuMjU5NTEzMSBDMTIuMzk1ODIyOSwyMy4yNTYzNjYyIDEyLjM4NzA0OTMsMjMuMjU5MDIzNSAxMi4zODIxNDIxLDIzLjI2NDkwNzQgTDEyLjM3ODAzMjMsMjMuMjc1ODMxIEwxMi4zNjA5NDEsMjMuNzAzMTA5NyBMMTIuMzY1ODk0NywyMy43MjM0OTk0IEwxMi4zNzY5MDQ4LDIzLjczNTcxMzkgTDEyLjQ4MDQ3NzcsMjMuODA5NjkzMSBMMTIuNDk1MzQ5MSwyMy44MTM2MTM0IEwxMi40OTUzNDkxLDIzLjgxMzYxMzQgTDEyLjUwNzExNTIsMjMuODA5NjkzMSBMMTIuNjEwNjkwMiwyMy43MzU3MTM5IEwxMi42MjMyOTM4LDIzLjcxOTY3MzMgTDEyLjYyMzI5MzgsMjMuNzE5NjczMyBMMTIuNjI2NjUyNywyMy43MDMxMDk3IEwxMi42MDk1NjEsMjMuMjc1ODMxIEMxMi42MDc1NzI0LDIzLjI2NTcwMTMgMTIuNjAxMDExMiwyMy4yNTkyOTkzIDEyLjU5MzQ5MDEsMjMuMjU3ODQxIEwxMi41OTM0OTAxLDIzLjI1Nzg0MSBaIE0xMi44NTgzOTA2LDIzLjE0NTI4NjIgTDEyLjg0NDU0ODUsMjMuMTQ3MzA3MiBMMTIuNjU5ODQ0MywyMy4yMzk2NTk3IEwxMi42NDk4ODIyLDIzLjI0OTkwNTIgTDEyLjY0OTg4MjIsMjMuMjQ5OTA1MiBMMTIuNjQ3MTk0MywyMy4yNjExMTE0IEwxMi42NjUwOTQzLDIzLjY5MDYzODkgTDEyLjY2OTkzNDksMjMuNzAzNDE3OCBMMTIuNjY5OTM0OSwyMy43MDM0MTc4IEwxMi42NzgzODYsMjMuNzEwNDkzMSBMMTIuODc5MzQwMiwyMy44MDMyMzg5IEMxMi44OTE0Mjg1LDIzLjgwNjg5OTkgMTIuOTAyMjMzMywyMy44MDI5ODc1IDEyLjkwNzgyODYsMjMuNzk1MjI2NCBMMTIuOTExODIzNSwyMy43ODExNjM5IEwxMi44Nzc2Nzc3LDIzLjE2NjUzMzEgQzEyLjg3NTI4ODIsMjMuMTU0NTg5NyAxMi44Njc0MTAyLDIzLjE0NzAwMTYgMTIuODU4MzkwNiwyMy4xNDUyODYyIEwxMi44NTgzOTA2LDIzLjE0NTI4NjIgWiBNMTIuMTQzMDQ3MywyMy4xNDczMDcyIEMxMi4xMzMyMTc4LDIzLjE0MjM5MjUgMTIuMTIyMTc2MywyMy4xNDUyNjA2IDEyLjExNTYzNjUsMjMuMTUyNTk1NCBMMTIuMTA5OTE3MywyMy4xNjY1MzMxIEwxMi4wNzU3NzE0LDIzLjc4MTE2MzkgQzEyLjA3NTEzMjMsMjMuNzkyNjYzOSAxMi4wODI4MDk5LDIzLjgwMTg2MDIgMTIuMDkyNjQ4MSwyMy44MDQ1Njc2IEwxMi4xMDgyNTYsMjMuODAzMjM4OSBMMTIuMzA5MjEwNiwyMy43MTA0OTMxIEwxMi4zMTg2NDk3LDIzLjcwMjQzNDcgTDEyLjMxODY0OTcsMjMuNzAyNDM0NyBMMTIuMzIyNTA0MywyMy42OTA2Mzg5IEwxMi4zNDA0MDEsMjMuMjYxMTExNCBMMTIuMzM3MjQ1LDIzLjI0ODUxNzYgTDEyLjMzNzI0NSwyMy4yNDg1MTc2IEwxMi4zMjc3NTMxLDIzLjIzOTY1OTcgTDEyLjE0MzA0NzMsMjMuMTQ3MzA3MiBaIj4mI3hhOyYjeGE7PC9wYXRoPiYjeGE7ICAgICAgICAgICAgICAgIDxwYXRoIGZpbGw9IiMwOTI0NEIiIGlkPSLlvaLnirYiIGQ9Ik0xMC41LDQgQzkuNDA1NjQsNCA4LjY5Mzg3LDUuMTUxNjcgOS4xODMyOCw2LjEzMDQ5IEw5LjM0NTY1LDYuNDU1MjMgQzkuNzAwNTEsNy4xNjQ5NSA5LjE4NDQyLDggOC4zOTA5Miw4IEw1LDggQzQuNDQ3NzIsOCA0LDguNDQ3NzIgNCw5IEw0LDEwLjE5NDQgQzUuODIwODQsMTAuMDg1MyA3LjUsMTEuNTI1MiA3LjUsMTMuNSBDNy41LDE1LjQ3NDggNS44MjA4NCwxNi45MTQ3IDQsMTYuODA1NiBMNCwxOSBDNCwxOS41NTIzIDQuNDQ3NzIsMjAgNSwyMCBMNy4xOTQzNSwyMCBDNy4wODUzNCwxOC4xNzkyIDguNTI1MTYsMTYuNSAxMC41LDE2LjUgQzEyLjQ3NDgsMTYuNSAxMy45MTQ3LDE4LjE3OTIgMTMuODA1NiwyMCBMMTUsMjAgQzE1LjU1MjMsMjAgMTYsMTkuNTUyMyAxNiwxOSBMMTYsMTUuNjA5MSBDMTYsMTQuODE1NiAxNi44MzUsMTQuMjk5NSAxNy41NDQ4LDE0LjY1NDQgTDE3Ljg2OTUsMTQuODE2NyBDMTguODQ4MywxNS4zMDYxIDIwLDE0LjU5NDQgMjAsMTMuNSBDMjAsMTIuNDA1NiAxOC44NDgzLDExLjY5MzkgMTcuODY5NSwxMi4xODMzIEwxNy41NDQ4LDEyLjM0NTYgQzE2LjgzNSwxMi43MDA1IDE2LDEyLjE4NDQgMTYsMTEuMzkwOSBMMTYsOSBDMTYsOC40NDc3MiAxNS41NTIzLDggMTUsOCBMMTIuNjA5MSw4IEMxMS44MTU2LDggMTEuMjk5NSw3LjE2NDk1IDExLjY1NDQsNi40NTUyMyBMMTEuODE2Nyw2LjEzMDQ5IEMxMi4zMDYxLDUuMTUxNjcgMTEuNTk0NCw0IDEwLjUsNCBaIE03LjA2NDQxLDYgQzYuNzQ4MjIsMy45ODI3NCA4LjI5NDc3LDIgMTAuNSwyIEMxMi43MDUyLDIgMTQuMjUxOCwzLjk4Mjc0IDEzLjkzNTYsNiBMMTUsNiBDMTYuNjU2OSw2IDE4LDcuMzQzMTUgMTgsOSBMMTgsMTAuMDY0NCBDMjAuMDE3Myw5Ljc0ODIyIDIyLDExLjI5NDggMjIsMTMuNSBDMjIsMTUuNzA1MiAyMC4wMTczLDE3LjI1MTggMTgsMTYuOTM1NiBMMTgsMTkgQzE4LDIwLjY1NjkgMTYuNjU2OSwyMiAxNSwyMiBMMTIuNTkyOSwyMiBDMTEuODMxLDIyIDExLjMxNzMsMjEuMjIxIDExLjYxNzQsMjAuNTIwNyBMMTEuNzAyMSwyMC4zMjMxIEMxMi4wNzIsMTkuNDYwMSAxMS40MzksMTguNSAxMC41LDE4LjUgQzkuNTYxMDUsMTguNSA4LjkyNzk5LDE5LjQ2MDEgOS4yOTc4NiwyMC4zMjMxIEw5LjM4MjU2LDIwLjUyMDcgQzkuNjgyNjgsMjEuMjIxIDkuMTY5LDIyIDguNDA3MTIsMjIgTDUsMjIgQzMuMzQzMTUsMjIgMiwyMC42NTY5IDIsMTkgTDIsMTUuNTkyOSBDMiwxNC44MzEgMi43NzksMTQuMzE3MyAzLjQ3OTI5LDE0LjYxNzQgTDMuNjc2OTEsMTQuNzAyMSBDNC41Mzk5NCwxNS4wNzIgNS41LDE0LjQzOSA1LjUsMTMuNSBDNS41LDEyLjU2MSA0LjUzOTk0LDExLjkyOCAzLjY3NjkxLDEyLjI5NzkgTDMuNDc5MjksMTIuMzgyNiBDMi43NzksMTIuNjgyNyAyLDEyLjE2OSAyLDExLjQwNzEgTDIsOSBDMiw3LjM0MzE1IDMuMzQzMTUsNiA1LDYgTDcuMDY0NDEsNiBaIj4mI3hhOyYjeGE7PC9wYXRoPiYjeGE7ICAgICAgICAgICAgPC9nPiYjeGE7ICAgICAgICA8L2c+JiN4YTsgICAgPC9nPiYjeGE7PC9zdmc+;" parent="1pv9uvoy4DJZf9Z1PrCG-1" vertex="1">
          <mxGeometry x="1.25" y="2.25" width="10.5" height="10.5" as="geometry" />
        </mxCell>
        <mxCell id="1pv9uvoy4DJZf9Z1PrCG-3" value="" style="group" parent="v35DyY4_wD7kl4gQBfIq-1" vertex="1" connectable="0">
          <mxGeometry x="1383" y="1786" width="9" height="11" as="geometry" />
        </mxCell>
        <mxCell id="1pv9uvoy4DJZf9Z1PrCG-4" value="" style="verticalLabelPosition=middle;verticalAlign=middle;html=1;shape=mxgraph.basic.rect;fillColor2=none;strokeWidth=1;size=16;indent=100;topLeftStyle=default;topRightStyle=rounded;strokeColor=light-dark(#eeeff0, #ededed);fillColor=#BEC8D2;bottomRightStyle=rounded;labelPosition=center;align=center;spacing=0;spacingRight=3;fontColor=#FFFFFF;rotation=0;horizontal=1;fontFamily=Google Sans;fontSource=https%3A%2F%2Ffonts.googleapis.com%2Fcss%3Ffamily%3DGoogle%2BSans;" parent="1pv9uvoy4DJZf9Z1PrCG-3" vertex="1">
          <mxGeometry width="9" height="11" as="geometry" />
        </mxCell>
        <mxCell id="1pv9uvoy4DJZf9Z1PrCG-5" value="" style="shape=image;verticalLabelPosition=bottom;labelBackgroundColor=default;verticalAlign=top;aspect=fixed;imageAspect=0;editableCssRules=.*;image=data:image/svg+xml,PHN2ZyB4bWxuczp4bGluaz0iaHR0cDovL3d3dy53My5vcmcvMTk5OS94bGluayIgeG1sbnM9Imh0dHA6Ly93d3cudzMub3JnLzIwMDAvc3ZnIiB2ZXJzaW9uPSIxLjEiIHZpZXdCb3g9IjAgMCAyNCAyNCIgaGVpZ2h0PSI4MDBweCIgd2lkdGg9IjgwMHB4Ij4mI3hhOyAgICA8dGl0bGU+cGx1Z2luXzJfbGluZTwvdGl0bGU+JiN4YTsgICAgPGcgZmlsbC1ydWxlPSJldmVub2RkIiBmaWxsPSJub25lIiBzdHJva2Utd2lkdGg9IjEiIHN0cm9rZT0ibm9uZSIgaWQ9Iumhtemdoi0xIj4mI3hhOyAgICAgICAgPGcgdHJhbnNmb3JtPSJ0cmFuc2xhdGUoLTMzNi4wMDAwMDAsIC0xOTIuMDAwMDAwKSIgaWQ9IkRldmljZSI+JiN4YTsgICAgICAgICAgICA8ZyB0cmFuc2Zvcm09InRyYW5zbGF0ZSgzMzYuMDAwMDAwLCAxOTIuMDAwMDAwKSIgaWQ9InBsdWdpbl8yX2xpbmUiPiYjeGE7ICAgICAgICAgICAgICAgIDxwYXRoIGZpbGwtcnVsZT0ibm9uemVybyIgaWQ9Ik1pbmdDdXRlIiBkPSJNMjQsMCBMMjQsMjQgTDAsMjQgTDAsMCBMMjQsMCBaIE0xMi41OTM0OTAxLDIzLjI1Nzg0MSBMMTIuNTgxOTQwMiwyMy4yNTk1MTMxIEwxMi41MTA4Nzc3LDIzLjI5NTA0MzkgTDEyLjQ5MTg3OTEsMjMuMjk4NzQ2OSBMMTIuNDkxODc5MSwyMy4yOTg3NDY5IEwxMi40NzY3MTUyLDIzLjI5NTA0MzkgTDEyLjQwNTY1NDgsMjMuMjU5NTEzMSBDMTIuMzk1ODIyOSwyMy4yNTYzNjYyIDEyLjM4NzA0OTMsMjMuMjU5MDIzNSAxMi4zODIxNDIxLDIzLjI2NDkwNzQgTDEyLjM3ODAzMjMsMjMuMjc1ODMxIEwxMi4zNjA5NDEsMjMuNzAzMTA5NyBMMTIuMzY1ODk0NywyMy43MjM0OTk0IEwxMi4zNzY5MDQ4LDIzLjczNTcxMzkgTDEyLjQ4MDQ3NzcsMjMuODA5NjkzMSBMMTIuNDk1MzQ5MSwyMy44MTM2MTM0IEwxMi40OTUzNDkxLDIzLjgxMzYxMzQgTDEyLjUwNzExNTIsMjMuODA5NjkzMSBMMTIuNjEwNjkwMiwyMy43MzU3MTM5IEwxMi42MjMyOTM4LDIzLjcxOTY3MzMgTDEyLjYyMzI5MzgsMjMuNzE5NjczMyBMMTIuNjI2NjUyNywyMy43MDMxMDk3IEwxMi42MDk1NjEsMjMuMjc1ODMxIEMxMi42MDc1NzI0LDIzLjI2NTcwMTMgMTIuNjAxMDExMiwyMy4yNTkyOTkzIDEyLjU5MzQ5MDEsMjMuMjU3ODQxIEwxMi41OTM0OTAxLDIzLjI1Nzg0MSBaIE0xMi44NTgzOTA2LDIzLjE0NTI4NjIgTDEyLjg0NDU0ODUsMjMuMTQ3MzA3MiBMMTIuNjU5ODQ0MywyMy4yMzk2NTk3IEwxMi42NDk4ODIyLDIzLjI0OTkwNTIgTDEyLjY0OTg4MjIsMjMuMjQ5OTA1MiBMMTIuNjQ3MTk0MywyMy4yNjExMTE0IEwxMi42NjUwOTQzLDIzLjY5MDYzODkgTDEyLjY2OTkzNDksMjMuNzAzNDE3OCBMMTIuNjY5OTM0OSwyMy43MDM0MTc4IEwxMi42NzgzODYsMjMuNzEwNDkzMSBMMTIuODc5MzQwMiwyMy44MDMyMzg5IEMxMi44OTE0Mjg1LDIzLjgwNjg5OTkgMTIuOTAyMjMzMywyMy44MDI5ODc1IDEyLjkwNzgyODYsMjMuNzk1MjI2NCBMMTIuOTExODIzNSwyMy43ODExNjM5IEwxMi44Nzc2Nzc3LDIzLjE2NjUzMzEgQzEyLjg3NTI4ODIsMjMuMTU0NTg5NyAxMi44Njc0MTAyLDIzLjE0NzAwMTYgMTIuODU4MzkwNiwyMy4xNDUyODYyIEwxMi44NTgzOTA2LDIzLjE0NTI4NjIgWiBNMTIuMTQzMDQ3MywyMy4xNDczMDcyIEMxMi4xMzMyMTc4LDIzLjE0MjM5MjUgMTIuMTIyMTc2MywyMy4xNDUyNjA2IDEyLjExNTYzNjUsMjMuMTUyNTk1NCBMMTIuMTA5OTE3MywyMy4xNjY1MzMxIEwxMi4wNzU3NzE0LDIzLjc4MTE2MzkgQzEyLjA3NTEzMjMsMjMuNzkyNjYzOSAxMi4wODI4MDk5LDIzLjgwMTg2MDIgMTIuMDkyNjQ4MSwyMy44MDQ1Njc2IEwxMi4xMDgyNTYsMjMuODAzMjM4OSBMMTIuMzA5MjEwNiwyMy43MTA0OTMxIEwxMi4zMTg2NDk3LDIzLjcwMjQzNDcgTDEyLjMxODY0OTcsMjMuNzAyNDM0NyBMMTIuMzIyNTA0MywyMy42OTA2Mzg5IEwxMi4zNDA0MDEsMjMuMjYxMTExNCBMMTIuMzM3MjQ1LDIzLjI0ODUxNzYgTDEyLjMzNzI0NSwyMy4yNDg1MTc2IEwxMi4zMjc3NTMxLDIzLjIzOTY1OTcgTDEyLjE0MzA0NzMsMjMuMTQ3MzA3MiBaIj4mI3hhOyYjeGE7PC9wYXRoPiYjeGE7ICAgICAgICAgICAgICAgIDxwYXRoIGZpbGw9IiMwOTI0NEIiIGlkPSLlvaLnirYiIGQ9Ik0xMC41LDQgQzkuNDA1NjQsNCA4LjY5Mzg3LDUuMTUxNjcgOS4xODMyOCw2LjEzMDQ5IEw5LjM0NTY1LDYuNDU1MjMgQzkuNzAwNTEsNy4xNjQ5NSA5LjE4NDQyLDggOC4zOTA5Miw4IEw1LDggQzQuNDQ3NzIsOCA0LDguNDQ3NzIgNCw5IEw0LDEwLjE5NDQgQzUuODIwODQsMTAuMDg1MyA3LjUsMTEuNTI1MiA3LjUsMTMuNSBDNy41LDE1LjQ3NDggNS44MjA4NCwxNi45MTQ3IDQsMTYuODA1NiBMNCwxOSBDNCwxOS41NTIzIDQuNDQ3NzIsMjAgNSwyMCBMNy4xOTQzNSwyMCBDNy4wODUzNCwxOC4xNzkyIDguNTI1MTYsMTYuNSAxMC41LDE2LjUgQzEyLjQ3NDgsMTYuNSAxMy45MTQ3LDE4LjE3OTIgMTMuODA1NiwyMCBMMTUsMjAgQzE1LjU1MjMsMjAgMTYsMTkuNTUyMyAxNiwxOSBMMTYsMTUuNjA5MSBDMTYsMTQuODE1NiAxNi44MzUsMTQuMjk5NSAxNy41NDQ4LDE0LjY1NDQgTDE3Ljg2OTUsMTQuODE2NyBDMTguODQ4MywxNS4zMDYxIDIwLDE0LjU5NDQgMjAsMTMuNSBDMjAsMTIuNDA1NiAxOC44NDgzLDExLjY5MzkgMTcuODY5NSwxMi4xODMzIEwxNy41NDQ4LDEyLjM0NTYgQzE2LjgzNSwxMi43MDA1IDE2LDEyLjE4NDQgMTYsMTEuMzkwOSBMMTYsOSBDMTYsOC40NDc3MiAxNS41NTIzLDggMTUsOCBMMTIuNjA5MSw4IEMxMS44MTU2LDggMTEuMjk5NSw3LjE2NDk1IDExLjY1NDQsNi40NTUyMyBMMTEuODE2Nyw2LjEzMDQ5IEMxMi4zMDYxLDUuMTUxNjcgMTEuNTk0NCw0IDEwLjUsNCBaIE03LjA2NDQxLDYgQzYuNzQ4MjIsMy45ODI3NCA4LjI5NDc3LDIgMTAuNSwyIEMxMi43MDUyLDIgMTQuMjUxOCwzLjk4Mjc0IDEzLjkzNTYsNiBMMTUsNiBDMTYuNjU2OSw2IDE4LDcuMzQzMTUgMTgsOSBMMTgsMTAuMDY0NCBDMjAuMDE3Myw5Ljc0ODIyIDIyLDExLjI5NDggMjIsMTMuNSBDMjIsMTUuNzA1MiAyMC4wMTczLDE3LjI1MTggMTgsMTYuOTM1NiBMMTgsMTkgQzE4LDIwLjY1NjkgMTYuNjU2OSwyMiAxNSwyMiBMMTIuNTkyOSwyMiBDMTEuODMxLDIyIDExLjMxNzMsMjEuMjIxIDExLjYxNzQsMjAuNTIwNyBMMTEuNzAyMSwyMC4zMjMxIEMxMi4wNzIsMTkuNDYwMSAxMS40MzksMTguNSAxMC41LDE4LjUgQzkuNTYxMDUsMTguNSA4LjkyNzk5LDE5LjQ2MDEgOS4yOTc4NiwyMC4zMjMxIEw5LjM4MjU2LDIwLjUyMDcgQzkuNjgyNjgsMjEuMjIxIDkuMTY5LDIyIDguNDA3MTIsMjIgTDUsMjIgQzMuMzQzMTUsMjIgMiwyMC42NTY5IDIsMTkgTDIsMTUuNTkyOSBDMiwxNC44MzEgMi43NzksMTQuMzE3MyAzLjQ3OTI5LDE0LjYxNzQgTDMuNjc2OTEsMTQuNzAyMSBDNC41Mzk5NCwxNS4wNzIgNS41LDE0LjQzOSA1LjUsMTMuNSBDNS41LDEyLjU2MSA0LjUzOTk0LDExLjkyOCAzLjY3NjkxLDEyLjI5NzkgTDMuNDc5MjksMTIuMzgyNiBDMi43NzksMTIuNjgyNyAyLDEyLjE2OSAyLDExLjQwNzEgTDIsOSBDMiw3LjM0MzE1IDMuMzQzMTUsNiA1LDYgTDcuMDY0NDEsNiBaIj4mI3hhOyYjeGE7PC9wYXRoPiYjeGE7ICAgICAgICAgICAgPC9nPiYjeGE7ICAgICAgICA8L2c+JiN4YTsgICAgPC9nPiYjeGE7PC9zdmc+;" parent="1pv9uvoy4DJZf9Z1PrCG-3" vertex="1">
          <mxGeometry x="0.8653846153846154" y="1.6500000000000001" width="6.834319526627219" height="6.834319526627219" as="geometry" />
        </mxCell>
        <mxCell id="1pv9uvoy4DJZf9Z1PrCG-7" value="" style="group" parent="v35DyY4_wD7kl4gQBfIq-1" vertex="1" connectable="0">
          <mxGeometry x="1414" y="1713" width="13" height="15" as="geometry" />
        </mxCell>
        <mxCell id="1pv9uvoy4DJZf9Z1PrCG-8" value="" style="verticalLabelPosition=middle;verticalAlign=middle;html=1;shape=mxgraph.basic.rect;fillColor2=none;strokeWidth=1;size=16;indent=100;topLeftStyle=default;topRightStyle=rounded;strokeColor=light-dark(#b3bdc7, #ededed);fillColor=#BEC8D2;bottomRightStyle=rounded;labelPosition=center;align=center;spacing=0;spacingRight=3;fontColor=#FFFFFF;rotation=0;horizontal=1;fontFamily=Google Sans;fontSource=https%3A%2F%2Ffonts.googleapis.com%2Fcss%3Ffamily%3DGoogle%2BSans;" parent="1pv9uvoy4DJZf9Z1PrCG-7" vertex="1">
          <mxGeometry width="13" height="15" as="geometry" />
        </mxCell>
        <mxCell id="1pv9uvoy4DJZf9Z1PrCG-9" value="" style="shape=image;verticalLabelPosition=bottom;labelBackgroundColor=default;verticalAlign=top;aspect=fixed;imageAspect=0;editableCssRules=.*;image=data:image/svg+xml,PHN2ZyB4bWxuczp4bGluaz0iaHR0cDovL3d3dy53My5vcmcvMTk5OS94bGluayIgeG1sbnM9Imh0dHA6Ly93d3cudzMub3JnLzIwMDAvc3ZnIiB2ZXJzaW9uPSIxLjEiIHZpZXdCb3g9IjAgMCAyNCAyNCIgaGVpZ2h0PSI4MDBweCIgd2lkdGg9IjgwMHB4Ij4mI3hhOyAgICA8dGl0bGU+cGx1Z2luXzJfbGluZTwvdGl0bGU+JiN4YTsgICAgPGcgZmlsbC1ydWxlPSJldmVub2RkIiBmaWxsPSJub25lIiBzdHJva2Utd2lkdGg9IjEiIHN0cm9rZT0ibm9uZSIgaWQ9Iumhtemdoi0xIj4mI3hhOyAgICAgICAgPGcgdHJhbnNmb3JtPSJ0cmFuc2xhdGUoLTMzNi4wMDAwMDAsIC0xOTIuMDAwMDAwKSIgaWQ9IkRldmljZSI+JiN4YTsgICAgICAgICAgICA8ZyB0cmFuc2Zvcm09InRyYW5zbGF0ZSgzMzYuMDAwMDAwLCAxOTIuMDAwMDAwKSIgaWQ9InBsdWdpbl8yX2xpbmUiPiYjeGE7ICAgICAgICAgICAgICAgIDxwYXRoIGZpbGwtcnVsZT0ibm9uemVybyIgaWQ9Ik1pbmdDdXRlIiBkPSJNMjQsMCBMMjQsMjQgTDAsMjQgTDAsMCBMMjQsMCBaIE0xMi41OTM0OTAxLDIzLjI1Nzg0MSBMMTIuNTgxOTQwMiwyMy4yNTk1MTMxIEwxMi41MTA4Nzc3LDIzLjI5NTA0MzkgTDEyLjQ5MTg3OTEsMjMuMjk4NzQ2OSBMMTIuNDkxODc5MSwyMy4yOTg3NDY5IEwxMi40NzY3MTUyLDIzLjI5NTA0MzkgTDEyLjQwNTY1NDgsMjMuMjU5NTEzMSBDMTIuMzk1ODIyOSwyMy4yNTYzNjYyIDEyLjM4NzA0OTMsMjMuMjU5MDIzNSAxMi4zODIxNDIxLDIzLjI2NDkwNzQgTDEyLjM3ODAzMjMsMjMuMjc1ODMxIEwxMi4zNjA5NDEsMjMuNzAzMTA5NyBMMTIuMzY1ODk0NywyMy43MjM0OTk0IEwxMi4zNzY5MDQ4LDIzLjczNTcxMzkgTDEyLjQ4MDQ3NzcsMjMuODA5NjkzMSBMMTIuNDk1MzQ5MSwyMy44MTM2MTM0IEwxMi40OTUzNDkxLDIzLjgxMzYxMzQgTDEyLjUwNzExNTIsMjMuODA5NjkzMSBMMTIuNjEwNjkwMiwyMy43MzU3MTM5IEwxMi42MjMyOTM4LDIzLjcxOTY3MzMgTDEyLjYyMzI5MzgsMjMuNzE5NjczMyBMMTIuNjI2NjUyNywyMy43MDMxMDk3IEwxMi42MDk1NjEsMjMuMjc1ODMxIEMxMi42MDc1NzI0LDIzLjI2NTcwMTMgMTIuNjAxMDExMiwyMy4yNTkyOTkzIDEyLjU5MzQ5MDEsMjMuMjU3ODQxIEwxMi41OTM0OTAxLDIzLjI1Nzg0MSBaIE0xMi44NTgzOTA2LDIzLjE0NTI4NjIgTDEyLjg0NDU0ODUsMjMuMTQ3MzA3MiBMMTIuNjU5ODQ0MywyMy4yMzk2NTk3IEwxMi42NDk4ODIyLDIzLjI0OTkwNTIgTDEyLjY0OTg4MjIsMjMuMjQ5OTA1MiBMMTIuNjQ3MTk0MywyMy4yNjExMTE0IEwxMi42NjUwOTQzLDIzLjY5MDYzODkgTDEyLjY2OTkzNDksMjMuNzAzNDE3OCBMMTIuNjY5OTM0OSwyMy43MDM0MTc4IEwxMi42NzgzODYsMjMuNzEwNDkzMSBMMTIuODc5MzQwMiwyMy44MDMyMzg5IEMxMi44OTE0Mjg1LDIzLjgwNjg5OTkgMTIuOTAyMjMzMywyMy44MDI5ODc1IDEyLjkwNzgyODYsMjMuNzk1MjI2NCBMMTIuOTExODIzNSwyMy43ODExNjM5IEwxMi44Nzc2Nzc3LDIzLjE2NjUzMzEgQzEyLjg3NTI4ODIsMjMuMTU0NTg5NyAxMi44Njc0MTAyLDIzLjE0NzAwMTYgMTIuODU4MzkwNiwyMy4xNDUyODYyIEwxMi44NTgzOTA2LDIzLjE0NTI4NjIgWiBNMTIuMTQzMDQ3MywyMy4xNDczMDcyIEMxMi4xMzMyMTc4LDIzLjE0MjM5MjUgMTIuMTIyMTc2MywyMy4xNDUyNjA2IDEyLjExNTYzNjUsMjMuMTUyNTk1NCBMMTIuMTA5OTE3MywyMy4xNjY1MzMxIEwxMi4wNzU3NzE0LDIzLjc4MTE2MzkgQzEyLjA3NTEzMjMsMjMuNzkyNjYzOSAxMi4wODI4MDk5LDIzLjgwMTg2MDIgMTIuMDkyNjQ4MSwyMy44MDQ1Njc2IEwxMi4xMDgyNTYsMjMuODAzMjM4OSBMMTIuMzA5MjEwNiwyMy43MTA0OTMxIEwxMi4zMTg2NDk3LDIzLjcwMjQzNDcgTDEyLjMxODY0OTcsMjMuNzAyNDM0NyBMMTIuMzIyNTA0MywyMy42OTA2Mzg5IEwxMi4zNDA0MDEsMjMuMjYxMTExNCBMMTIuMzM3MjQ1LDIzLjI0ODUxNzYgTDEyLjMzNzI0NSwyMy4yNDg1MTc2IEwxMi4zMjc3NTMxLDIzLjIzOTY1OTcgTDEyLjE0MzA0NzMsMjMuMTQ3MzA3MiBaIj4mI3hhOyYjeGE7PC9wYXRoPiYjeGE7ICAgICAgICAgICAgICAgIDxwYXRoIGZpbGw9IiMwOTI0NEIiIGlkPSLlvaLnirYiIGQ9Ik0xMC41LDQgQzkuNDA1NjQsNCA4LjY5Mzg3LDUuMTUxNjcgOS4xODMyOCw2LjEzMDQ5IEw5LjM0NTY1LDYuNDU1MjMgQzkuNzAwNTEsNy4xNjQ5NSA5LjE4NDQyLDggOC4zOTA5Miw4IEw1LDggQzQuNDQ3NzIsOCA0LDguNDQ3NzIgNCw5IEw0LDEwLjE5NDQgQzUuODIwODQsMTAuMDg1MyA3LjUsMTEuNTI1MiA3LjUsMTMuNSBDNy41LDE1LjQ3NDggNS44MjA4NCwxNi45MTQ3IDQsMTYuODA1NiBMNCwxOSBDNCwxOS41NTIzIDQuNDQ3NzIsMjAgNSwyMCBMNy4xOTQzNSwyMCBDNy4wODUzNCwxOC4xNzkyIDguNTI1MTYsMTYuNSAxMC41LDE2LjUgQzEyLjQ3NDgsMTYuNSAxMy45MTQ3LDE4LjE3OTIgMTMuODA1NiwyMCBMMTUsMjAgQzE1LjU1MjMsMjAgMTYsMTkuNTUyMyAxNiwxOSBMMTYsMTUuNjA5MSBDMTYsMTQuODE1NiAxNi44MzUsMTQuMjk5NSAxNy41NDQ4LDE0LjY1NDQgTDE3Ljg2OTUsMTQuODE2NyBDMTguODQ4MywxNS4zMDYxIDIwLDE0LjU5NDQgMjAsMTMuNSBDMjAsMTIuNDA1NiAxOC44NDgzLDExLjY5MzkgMTcuODY5NSwxMi4xODMzIEwxNy41NDQ4LDEyLjM0NTYgQzE2LjgzNSwxMi43MDA1IDE2LDEyLjE4NDQgMTYsMTEuMzkwOSBMMTYsOSBDMTYsOC40NDc3MiAxNS41NTIzLDggMTUsOCBMMTIuNjA5MSw4IEMxMS44MTU2LDggMTEuMjk5NSw3LjE2NDk1IDExLjY1NDQsNi40NTUyMyBMMTEuODE2Nyw2LjEzMDQ5IEMxMi4zMDYxLDUuMTUxNjcgMTEuNTk0NCw0IDEwLjUsNCBaIE03LjA2NDQxLDYgQzYuNzQ4MjIsMy45ODI3NCA4LjI5NDc3LDIgMTAuNSwyIEMxMi43MDUyLDIgMTQuMjUxOCwzLjk4Mjc0IDEzLjkzNTYsNiBMMTUsNiBDMTYuNjU2OSw2IDE4LDcuMzQzMTUgMTgsOSBMMTgsMTAuMDY0NCBDMjAuMDE3Myw5Ljc0ODIyIDIyLDExLjI5NDggMjIsMTMuNSBDMjIsMTUuNzA1MiAyMC4wMTczLDE3LjI1MTggMTgsMTYuOTM1NiBMMTgsMTkgQzE4LDIwLjY1NjkgMTYuNjU2OSwyMiAxNSwyMiBMMTIuNTkyOSwyMiBDMTEuODMxLDIyIDExLjMxNzMsMjEuMjIxIDExLjYxNzQsMjAuNTIwNyBMMTEuNzAyMSwyMC4zMjMxIEMxMi4wNzIsMTkuNDYwMSAxMS40MzksMTguNSAxMC41LDE4LjUgQzkuNTYxMDUsMTguNSA4LjkyNzk5LDE5LjQ2MDEgOS4yOTc4NiwyMC4zMjMxIEw5LjM4MjU2LDIwLjUyMDcgQzkuNjgyNjgsMjEuMjIxIDkuMTY5LDIyIDguNDA3MTIsMjIgTDUsMjIgQzMuMzQzMTUsMjIgMiwyMC42NTY5IDIsMTkgTDIsMTUuNTkyOSBDMiwxNC44MzEgMi43NzksMTQuMzE3MyAzLjQ3OTI5LDE0LjYxNzQgTDMuNjc2OTEsMTQuNzAyMSBDNC41Mzk5NCwxNS4wNzIgNS41LDE0LjQzOSA1LjUsMTMuNSBDNS41LDEyLjU2MSA0LjUzOTk0LDExLjkyOCAzLjY3NjkxLDEyLjI5NzkgTDMuNDc5MjksMTIuMzgyNiBDMi43NzksMTIuNjgyNyAyLDEyLjE2OSAyLDExLjQwNzEgTDIsOSBDMiw3LjM0MzE1IDMuMzQzMTUsNiA1LDYgTDcuMDY0NDEsNiBaIj4mI3hhOyYjeGE7PC9wYXRoPiYjeGE7ICAgICAgICAgICAgPC9nPiYjeGE7ICAgICAgICA8L2c+JiN4YTsgICAgPC9nPiYjeGE7PC9zdmc+;" parent="1pv9uvoy4DJZf9Z1PrCG-7" vertex="1">
          <mxGeometry x="1.25" y="2.25" width="10.5" height="10.5" as="geometry" />
        </mxCell>
        <mxCell id="1pv9uvoy4DJZf9Z1PrCG-10" value="" style="group" parent="v35DyY4_wD7kl4gQBfIq-1" vertex="1" connectable="0">
          <mxGeometry x="1581" y="1750" width="13" height="15" as="geometry" />
        </mxCell>
        <mxCell id="1pv9uvoy4DJZf9Z1PrCG-11" value="" style="verticalLabelPosition=middle;verticalAlign=middle;html=1;shape=mxgraph.basic.rect;fillColor2=none;strokeWidth=1;size=16;indent=100;topLeftStyle=default;topRightStyle=rounded;strokeColor=light-dark(#eeeff0, #ededed);fillColor=#BEC8D2;bottomRightStyle=rounded;labelPosition=center;align=center;spacing=0;spacingRight=3;fontColor=#FFFFFF;rotation=0;horizontal=1;fontFamily=Google Sans;fontSource=https%3A%2F%2Ffonts.googleapis.com%2Fcss%3Ffamily%3DGoogle%2BSans;" parent="1pv9uvoy4DJZf9Z1PrCG-10" vertex="1">
          <mxGeometry width="13" height="15" as="geometry" />
        </mxCell>
        <mxCell id="1pv9uvoy4DJZf9Z1PrCG-12" value="" style="shape=image;verticalLabelPosition=bottom;labelBackgroundColor=default;verticalAlign=top;aspect=fixed;imageAspect=0;editableCssRules=.*;image=data:image/svg+xml,PHN2ZyB4bWxuczp4bGluaz0iaHR0cDovL3d3dy53My5vcmcvMTk5OS94bGluayIgeG1sbnM9Imh0dHA6Ly93d3cudzMub3JnLzIwMDAvc3ZnIiB2ZXJzaW9uPSIxLjEiIHZpZXdCb3g9IjAgMCAyNCAyNCIgaGVpZ2h0PSI4MDBweCIgd2lkdGg9IjgwMHB4Ij4mI3hhOyAgICA8dGl0bGU+cGx1Z2luXzJfbGluZTwvdGl0bGU+JiN4YTsgICAgPGcgZmlsbC1ydWxlPSJldmVub2RkIiBmaWxsPSJub25lIiBzdHJva2Utd2lkdGg9IjEiIHN0cm9rZT0ibm9uZSIgaWQ9Iumhtemdoi0xIj4mI3hhOyAgICAgICAgPGcgdHJhbnNmb3JtPSJ0cmFuc2xhdGUoLTMzNi4wMDAwMDAsIC0xOTIuMDAwMDAwKSIgaWQ9IkRldmljZSI+JiN4YTsgICAgICAgICAgICA8ZyB0cmFuc2Zvcm09InRyYW5zbGF0ZSgzMzYuMDAwMDAwLCAxOTIuMDAwMDAwKSIgaWQ9InBsdWdpbl8yX2xpbmUiPiYjeGE7ICAgICAgICAgICAgICAgIDxwYXRoIGZpbGwtcnVsZT0ibm9uemVybyIgaWQ9Ik1pbmdDdXRlIiBkPSJNMjQsMCBMMjQsMjQgTDAsMjQgTDAsMCBMMjQsMCBaIE0xMi41OTM0OTAxLDIzLjI1Nzg0MSBMMTIuNTgxOTQwMiwyMy4yNTk1MTMxIEwxMi41MTA4Nzc3LDIzLjI5NTA0MzkgTDEyLjQ5MTg3OTEsMjMuMjk4NzQ2OSBMMTIuNDkxODc5MSwyMy4yOTg3NDY5IEwxMi40NzY3MTUyLDIzLjI5NTA0MzkgTDEyLjQwNTY1NDgsMjMuMjU5NTEzMSBDMTIuMzk1ODIyOSwyMy4yNTYzNjYyIDEyLjM4NzA0OTMsMjMuMjU5MDIzNSAxMi4zODIxNDIxLDIzLjI2NDkwNzQgTDEyLjM3ODAzMjMsMjMuMjc1ODMxIEwxMi4zNjA5NDEsMjMuNzAzMTA5NyBMMTIuMzY1ODk0NywyMy43MjM0OTk0IEwxMi4zNzY5MDQ4LDIzLjczNTcxMzkgTDEyLjQ4MDQ3NzcsMjMuODA5NjkzMSBMMTIuNDk1MzQ5MSwyMy44MTM2MTM0IEwxMi40OTUzNDkxLDIzLjgxMzYxMzQgTDEyLjUwNzExNTIsMjMuODA5NjkzMSBMMTIuNjEwNjkwMiwyMy43MzU3MTM5IEwxMi42MjMyOTM4LDIzLjcxOTY3MzMgTDEyLjYyMzI5MzgsMjMuNzE5NjczMyBMMTIuNjI2NjUyNywyMy43MDMxMDk3IEwxMi42MDk1NjEsMjMuMjc1ODMxIEMxMi42MDc1NzI0LDIzLjI2NTcwMTMgMTIuNjAxMDExMiwyMy4yNTkyOTkzIDEyLjU5MzQ5MDEsMjMuMjU3ODQxIEwxMi41OTM0OTAxLDIzLjI1Nzg0MSBaIE0xMi44NTgzOTA2LDIzLjE0NTI4NjIgTDEyLjg0NDU0ODUsMjMuMTQ3MzA3MiBMMTIuNjU5ODQ0MywyMy4yMzk2NTk3IEwxMi42NDk4ODIyLDIzLjI0OTkwNTIgTDEyLjY0OTg4MjIsMjMuMjQ5OTA1MiBMMTIuNjQ3MTk0MywyMy4yNjExMTE0IEwxMi42NjUwOTQzLDIzLjY5MDYzODkgTDEyLjY2OTkzNDksMjMuNzAzNDE3OCBMMTIuNjY5OTM0OSwyMy43MDM0MTc4IEwxMi42NzgzODYsMjMuNzEwNDkzMSBMMTIuODc5MzQwMiwyMy44MDMyMzg5IEMxMi44OTE0Mjg1LDIzLjgwNjg5OTkgMTIuOTAyMjMzMywyMy44MDI5ODc1IDEyLjkwNzgyODYsMjMuNzk1MjI2NCBMMTIuOTExODIzNSwyMy43ODExNjM5IEwxMi44Nzc2Nzc3LDIzLjE2NjUzMzEgQzEyLjg3NTI4ODIsMjMuMTU0NTg5NyAxMi44Njc0MTAyLDIzLjE0NzAwMTYgMTIuODU4MzkwNiwyMy4xNDUyODYyIEwxMi44NTgzOTA2LDIzLjE0NTI4NjIgWiBNMTIuMTQzMDQ3MywyMy4xNDczMDcyIEMxMi4xMzMyMTc4LDIzLjE0MjM5MjUgMTIuMTIyMTc2MywyMy4xNDUyNjA2IDEyLjExNTYzNjUsMjMuMTUyNTk1NCBMMTIuMTA5OTE3MywyMy4xNjY1MzMxIEwxMi4wNzU3NzE0LDIzLjc4MTE2MzkgQzEyLjA3NTEzMjMsMjMuNzkyNjYzOSAxMi4wODI4MDk5LDIzLjgwMTg2MDIgMTIuMDkyNjQ4MSwyMy44MDQ1Njc2IEwxMi4xMDgyNTYsMjMuODAzMjM4OSBMMTIuMzA5MjEwNiwyMy43MTA0OTMxIEwxMi4zMTg2NDk3LDIzLjcwMjQzNDcgTDEyLjMxODY0OTcsMjMuNzAyNDM0NyBMMTIuMzIyNTA0MywyMy42OTA2Mzg5IEwxMi4zNDA0MDEsMjMuMjYxMTExNCBMMTIuMzM3MjQ1LDIzLjI0ODUxNzYgTDEyLjMzNzI0NSwyMy4yNDg1MTc2IEwxMi4zMjc3NTMxLDIzLjIzOTY1OTcgTDEyLjE0MzA0NzMsMjMuMTQ3MzA3MiBaIj4mI3hhOyYjeGE7PC9wYXRoPiYjeGE7ICAgICAgICAgICAgICAgIDxwYXRoIGZpbGw9IiMwOTI0NEIiIGlkPSLlvaLnirYiIGQ9Ik0xMC41LDQgQzkuNDA1NjQsNCA4LjY5Mzg3LDUuMTUxNjcgOS4xODMyOCw2LjEzMDQ5IEw5LjM0NTY1LDYuNDU1MjMgQzkuNzAwNTEsNy4xNjQ5NSA5LjE4NDQyLDggOC4zOTA5Miw4IEw1LDggQzQuNDQ3NzIsOCA0LDguNDQ3NzIgNCw5IEw0LDEwLjE5NDQgQzUuODIwODQsMTAuMDg1MyA3LjUsMTEuNTI1MiA3LjUsMTMuNSBDNy41LDE1LjQ3NDggNS44MjA4NCwxNi45MTQ3IDQsMTYuODA1NiBMNCwxOSBDNCwxOS41NTIzIDQuNDQ3NzIsMjAgNSwyMCBMNy4xOTQzNSwyMCBDNy4wODUzNCwxOC4xNzkyIDguNTI1MTYsMTYuNSAxMC41LDE2LjUgQzEyLjQ3NDgsMTYuNSAxMy45MTQ3LDE4LjE3OTIgMTMuODA1NiwyMCBMMTUsMjAgQzE1LjU1MjMsMjAgMTYsMTkuNTUyMyAxNiwxOSBMMTYsMTUuNjA5MSBDMTYsMTQuODE1NiAxNi44MzUsMTQuMjk5NSAxNy41NDQ4LDE0LjY1NDQgTDE3Ljg2OTUsMTQuODE2NyBDMTguODQ4MywxNS4zMDYxIDIwLDE0LjU5NDQgMjAsMTMuNSBDMjAsMTIuNDA1NiAxOC44NDgzLDExLjY5MzkgMTcuODY5NSwxMi4xODMzIEwxNy41NDQ4LDEyLjM0NTYgQzE2LjgzNSwxMi43MDA1IDE2LDEyLjE4NDQgMTYsMTEuMzkwOSBMMTYsOSBDMTYsOC40NDc3MiAxNS41NTIzLDggMTUsOCBMMTIuNjA5MSw4IEMxMS44MTU2LDggMTEuMjk5NSw3LjE2NDk1IDExLjY1NDQsNi40NTUyMyBMMTEuODE2Nyw2LjEzMDQ5IEMxMi4zMDYxLDUuMTUxNjcgMTEuNTk0NCw0IDEwLjUsNCBaIE03LjA2NDQxLDYgQzYuNzQ4MjIsMy45ODI3NCA4LjI5NDc3LDIgMTAuNSwyIEMxMi43MDUyLDIgMTQuMjUxOCwzLjk4Mjc0IDEzLjkzNTYsNiBMMTUsNiBDMTYuNjU2OSw2IDE4LDcuMzQzMTUgMTgsOSBMMTgsMTAuMDY0NCBDMjAuMDE3Myw5Ljc0ODIyIDIyLDExLjI5NDggMjIsMTMuNSBDMjIsMTUuNzA1MiAyMC4wMTczLDE3LjI1MTggMTgsMTYuOTM1NiBMMTgsMTkgQzE4LDIwLjY1NjkgMTYuNjU2OSwyMiAxNSwyMiBMMTIuNTkyOSwyMiBDMTEuODMxLDIyIDExLjMxNzMsMjEuMjIxIDExLjYxNzQsMjAuNTIwNyBMMTEuNzAyMSwyMC4zMjMxIEMxMi4wNzIsMTkuNDYwMSAxMS40MzksMTguNSAxMC41LDE4LjUgQzkuNTYxMDUsMTguNSA4LjkyNzk5LDE5LjQ2MDEgOS4yOTc4NiwyMC4zMjMxIEw5LjM4MjU2LDIwLjUyMDcgQzkuNjgyNjgsMjEuMjIxIDkuMTY5LDIyIDguNDA3MTIsMjIgTDUsMjIgQzMuMzQzMTUsMjIgMiwyMC42NTY5IDIsMTkgTDIsMTUuNTkyOSBDMiwxNC44MzEgMi43NzksMTQuMzE3MyAzLjQ3OTI5LDE0LjYxNzQgTDMuNjc2OTEsMTQuNzAyMSBDNC41Mzk5NCwxNS4wNzIgNS41LDE0LjQzOSA1LjUsMTMuNSBDNS41LDEyLjU2MSA0LjUzOTk0LDExLjkyOCAzLjY3NjkxLDEyLjI5NzkgTDMuNDc5MjksMTIuMzgyNiBDMi43NzksMTIuNjgyNyAyLDEyLjE2OSAyLDExLjQwNzEgTDIsOSBDMiw3LjM0MzE1IDMuMzQzMTUsNiA1LDYgTDcuMDY0NDEsNiBaIj4mI3hhOyYjeGE7PC9wYXRoPiYjeGE7ICAgICAgICAgICAgPC9nPiYjeGE7ICAgICAgICA8L2c+JiN4YTsgICAgPC9nPiYjeGE7PC9zdmc+;" parent="1pv9uvoy4DJZf9Z1PrCG-10" vertex="1">
          <mxGeometry x="1.25" y="2.25" width="10.5" height="10.5" as="geometry" />
        </mxCell>
        <mxCell id="1pv9uvoy4DJZf9Z1PrCG-13" value="" style="group" parent="v35DyY4_wD7kl4gQBfIq-1" vertex="1" connectable="0">
          <mxGeometry x="1746" y="1749.5" width="13" height="15" as="geometry" />
        </mxCell>
        <mxCell id="1pv9uvoy4DJZf9Z1PrCG-14" value="" style="verticalLabelPosition=middle;verticalAlign=middle;html=1;shape=mxgraph.basic.rect;fillColor2=none;strokeWidth=1;size=16;indent=100;topLeftStyle=default;topRightStyle=rounded;strokeColor=light-dark(#eeeff0, #ededed);fillColor=#BEC8D2;bottomRightStyle=rounded;labelPosition=center;align=center;spacing=0;spacingRight=3;fontColor=#FFFFFF;rotation=0;horizontal=1;fontFamily=Google Sans;fontSource=https%3A%2F%2Ffonts.googleapis.com%2Fcss%3Ffamily%3DGoogle%2BSans;" parent="1pv9uvoy4DJZf9Z1PrCG-13" vertex="1">
          <mxGeometry width="13" height="15" as="geometry" />
        </mxCell>
        <mxCell id="1pv9uvoy4DJZf9Z1PrCG-15" value="" style="shape=image;verticalLabelPosition=bottom;labelBackgroundColor=default;verticalAlign=top;aspect=fixed;imageAspect=0;editableCssRules=.*;image=data:image/svg+xml,PHN2ZyB4bWxuczp4bGluaz0iaHR0cDovL3d3dy53My5vcmcvMTk5OS94bGluayIgeG1sbnM9Imh0dHA6Ly93d3cudzMub3JnLzIwMDAvc3ZnIiB2ZXJzaW9uPSIxLjEiIHZpZXdCb3g9IjAgMCAyNCAyNCIgaGVpZ2h0PSI4MDBweCIgd2lkdGg9IjgwMHB4Ij4mI3hhOyAgICA8dGl0bGU+cGx1Z2luXzJfbGluZTwvdGl0bGU+JiN4YTsgICAgPGcgZmlsbC1ydWxlPSJldmVub2RkIiBmaWxsPSJub25lIiBzdHJva2Utd2lkdGg9IjEiIHN0cm9rZT0ibm9uZSIgaWQ9Iumhtemdoi0xIj4mI3hhOyAgICAgICAgPGcgdHJhbnNmb3JtPSJ0cmFuc2xhdGUoLTMzNi4wMDAwMDAsIC0xOTIuMDAwMDAwKSIgaWQ9IkRldmljZSI+JiN4YTsgICAgICAgICAgICA8ZyB0cmFuc2Zvcm09InRyYW5zbGF0ZSgzMzYuMDAwMDAwLCAxOTIuMDAwMDAwKSIgaWQ9InBsdWdpbl8yX2xpbmUiPiYjeGE7ICAgICAgICAgICAgICAgIDxwYXRoIGZpbGwtcnVsZT0ibm9uemVybyIgaWQ9Ik1pbmdDdXRlIiBkPSJNMjQsMCBMMjQsMjQgTDAsMjQgTDAsMCBMMjQsMCBaIE0xMi41OTM0OTAxLDIzLjI1Nzg0MSBMMTIuNTgxOTQwMiwyMy4yNTk1MTMxIEwxMi41MTA4Nzc3LDIzLjI5NTA0MzkgTDEyLjQ5MTg3OTEsMjMuMjk4NzQ2OSBMMTIuNDkxODc5MSwyMy4yOTg3NDY5IEwxMi40NzY3MTUyLDIzLjI5NTA0MzkgTDEyLjQwNTY1NDgsMjMuMjU5NTEzMSBDMTIuMzk1ODIyOSwyMy4yNTYzNjYyIDEyLjM4NzA0OTMsMjMuMjU5MDIzNSAxMi4zODIxNDIxLDIzLjI2NDkwNzQgTDEyLjM3ODAzMjMsMjMuMjc1ODMxIEwxMi4zNjA5NDEsMjMuNzAzMTA5NyBMMTIuMzY1ODk0NywyMy43MjM0OTk0IEwxMi4zNzY5MDQ4LDIzLjczNTcxMzkgTDEyLjQ4MDQ3NzcsMjMuODA5NjkzMSBMMTIuNDk1MzQ5MSwyMy44MTM2MTM0IEwxMi40OTUzNDkxLDIzLjgxMzYxMzQgTDEyLjUwNzExNTIsMjMuODA5NjkzMSBMMTIuNjEwNjkwMiwyMy43MzU3MTM5IEwxMi42MjMyOTM4LDIzLjcxOTY3MzMgTDEyLjYyMzI5MzgsMjMuNzE5NjczMyBMMTIuNjI2NjUyNywyMy43MDMxMDk3IEwxMi42MDk1NjEsMjMuMjc1ODMxIEMxMi42MDc1NzI0LDIzLjI2NTcwMTMgMTIuNjAxMDExMiwyMy4yNTkyOTkzIDEyLjU5MzQ5MDEsMjMuMjU3ODQxIEwxMi41OTM0OTAxLDIzLjI1Nzg0MSBaIE0xMi44NTgzOTA2LDIzLjE0NTI4NjIgTDEyLjg0NDU0ODUsMjMuMTQ3MzA3MiBMMTIuNjU5ODQ0MywyMy4yMzk2NTk3IEwxMi42NDk4ODIyLDIzLjI0OTkwNTIgTDEyLjY0OTg4MjIsMjMuMjQ5OTA1MiBMMTIuNjQ3MTk0MywyMy4yNjExMTE0IEwxMi42NjUwOTQzLDIzLjY5MDYzODkgTDEyLjY2OTkzNDksMjMuNzAzNDE3OCBMMTIuNjY5OTM0OSwyMy43MDM0MTc4IEwxMi42NzgzODYsMjMuNzEwNDkzMSBMMTIuODc5MzQwMiwyMy44MDMyMzg5IEMxMi44OTE0Mjg1LDIzLjgwNjg5OTkgMTIuOTAyMjMzMywyMy44MDI5ODc1IDEyLjkwNzgyODYsMjMuNzk1MjI2NCBMMTIuOTExODIzNSwyMy43ODExNjM5IEwxMi44Nzc2Nzc3LDIzLjE2NjUzMzEgQzEyLjg3NTI4ODIsMjMuMTU0NTg5NyAxMi44Njc0MTAyLDIzLjE0NzAwMTYgMTIuODU4MzkwNiwyMy4xNDUyODYyIEwxMi44NTgzOTA2LDIzLjE0NTI4NjIgWiBNMTIuMTQzMDQ3MywyMy4xNDczMDcyIEMxMi4xMzMyMTc4LDIzLjE0MjM5MjUgMTIuMTIyMTc2MywyMy4xNDUyNjA2IDEyLjExNTYzNjUsMjMuMTUyNTk1NCBMMTIuMTA5OTE3MywyMy4xNjY1MzMxIEwxMi4wNzU3NzE0LDIzLjc4MTE2MzkgQzEyLjA3NTEzMjMsMjMuNzkyNjYzOSAxMi4wODI4MDk5LDIzLjgwMTg2MDIgMTIuMDkyNjQ4MSwyMy44MDQ1Njc2IEwxMi4xMDgyNTYsMjMuODAzMjM4OSBMMTIuMzA5MjEwNiwyMy43MTA0OTMxIEwxMi4zMTg2NDk3LDIzLjcwMjQzNDcgTDEyLjMxODY0OTcsMjMuNzAyNDM0NyBMMTIuMzIyNTA0MywyMy42OTA2Mzg5IEwxMi4zNDA0MDEsMjMuMjYxMTExNCBMMTIuMzM3MjQ1LDIzLjI0ODUxNzYgTDEyLjMzNzI0NSwyMy4yNDg1MTc2IEwxMi4zMjc3NTMxLDIzLjIzOTY1OTcgTDEyLjE0MzA0NzMsMjMuMTQ3MzA3MiBaIj4mI3hhOyYjeGE7PC9wYXRoPiYjeGE7ICAgICAgICAgICAgICAgIDxwYXRoIGZpbGw9IiMwOTI0NEIiIGlkPSLlvaLnirYiIGQ9Ik0xMC41LDQgQzkuNDA1NjQsNCA4LjY5Mzg3LDUuMTUxNjcgOS4xODMyOCw2LjEzMDQ5IEw5LjM0NTY1LDYuNDU1MjMgQzkuNzAwNTEsNy4xNjQ5NSA5LjE4NDQyLDggOC4zOTA5Miw4IEw1LDggQzQuNDQ3NzIsOCA0LDguNDQ3NzIgNCw5IEw0LDEwLjE5NDQgQzUuODIwODQsMTAuMDg1MyA3LjUsMTEuNTI1MiA3LjUsMTMuNSBDNy41LDE1LjQ3NDggNS44MjA4NCwxNi45MTQ3IDQsMTYuODA1NiBMNCwxOSBDNCwxOS41NTIzIDQuNDQ3NzIsMjAgNSwyMCBMNy4xOTQzNSwyMCBDNy4wODUzNCwxOC4xNzkyIDguNTI1MTYsMTYuNSAxMC41LDE2LjUgQzEyLjQ3NDgsMTYuNSAxMy45MTQ3LDE4LjE3OTIgMTMuODA1NiwyMCBMMTUsMjAgQzE1LjU1MjMsMjAgMTYsMTkuNTUyMyAxNiwxOSBMMTYsMTUuNjA5MSBDMTYsMTQuODE1NiAxNi44MzUsMTQuMjk5NSAxNy41NDQ4LDE0LjY1NDQgTDE3Ljg2OTUsMTQuODE2NyBDMTguODQ4MywxNS4zMDYxIDIwLDE0LjU5NDQgMjAsMTMuNSBDMjAsMTIuNDA1NiAxOC44NDgzLDExLjY5MzkgMTcuODY5NSwxMi4xODMzIEwxNy41NDQ4LDEyLjM0NTYgQzE2LjgzNSwxMi43MDA1IDE2LDEyLjE4NDQgMTYsMTEuMzkwOSBMMTYsOSBDMTYsOC40NDc3MiAxNS41NTIzLDggMTUsOCBMMTIuNjA5MSw4IEMxMS44MTU2LDggMTEuMjk5NSw3LjE2NDk1IDExLjY1NDQsNi40NTUyMyBMMTEuODE2Nyw2LjEzMDQ5IEMxMi4zMDYxLDUuMTUxNjcgMTEuNTk0NCw0IDEwLjUsNCBaIE03LjA2NDQxLDYgQzYuNzQ4MjIsMy45ODI3NCA4LjI5NDc3LDIgMTAuNSwyIEMxMi43MDUyLDIgMTQuMjUxOCwzLjk4Mjc0IDEzLjkzNTYsNiBMMTUsNiBDMTYuNjU2OSw2IDE4LDcuMzQzMTUgMTgsOSBMMTgsMTAuMDY0NCBDMjAuMDE3Myw5Ljc0ODIyIDIyLDExLjI5NDggMjIsMTMuNSBDMjIsMTUuNzA1MiAyMC4wMTczLDE3LjI1MTggMTgsMTYuOTM1NiBMMTgsMTkgQzE4LDIwLjY1NjkgMTYuNjU2OSwyMiAxNSwyMiBMMTIuNTkyOSwyMiBDMTEuODMxLDIyIDExLjMxNzMsMjEuMjIxIDExLjYxNzQsMjAuNTIwNyBMMTEuNzAyMSwyMC4zMjMxIEMxMi4wNzIsMTkuNDYwMSAxMS40MzksMTguNSAxMC41LDE4LjUgQzkuNTYxMDUsMTguNSA4LjkyNzk5LDE5LjQ2MDEgOS4yOTc4NiwyMC4zMjMxIEw5LjM4MjU2LDIwLjUyMDcgQzkuNjgyNjgsMjEuMjIxIDkuMTY5LDIyIDguNDA3MTIsMjIgTDUsMjIgQzMuMzQzMTUsMjIgMiwyMC42NTY5IDIsMTkgTDIsMTUuNTkyOSBDMiwxNC44MzEgMi43NzksMTQuMzE3MyAzLjQ3OTI5LDE0LjYxNzQgTDMuNjc2OTEsMTQuNzAyMSBDNC41Mzk5NCwxNS4wNzIgNS41LDE0LjQzOSA1LjUsMTMuNSBDNS41LDEyLjU2MSA0LjUzOTk0LDExLjkyOCAzLjY3NjkxLDEyLjI5NzkgTDMuNDc5MjksMTIuMzgyNiBDMi43NzksMTIuNjgyNyAyLDEyLjE2OSAyLDExLjQwNzEgTDIsOSBDMiw3LjM0MzE1IDMuMzQzMTUsNiA1LDYgTDcuMDY0NDEsNiBaIj4mI3hhOyYjeGE7PC9wYXRoPiYjeGE7ICAgICAgICAgICAgPC9nPiYjeGE7ICAgICAgICA8L2c+JiN4YTsgICAgPC9nPiYjeGE7PC9zdmc+;" parent="1pv9uvoy4DJZf9Z1PrCG-13" vertex="1">
          <mxGeometry x="1.25" y="2.25" width="10.5" height="10.5" as="geometry" />
        </mxCell>
        <mxCell id="1pv9uvoy4DJZf9Z1PrCG-16" value="" style="group" parent="v35DyY4_wD7kl4gQBfIq-1" vertex="1" connectable="0">
          <mxGeometry x="1581" y="1713" width="13" height="15" as="geometry" />
        </mxCell>
        <mxCell id="1pv9uvoy4DJZf9Z1PrCG-17" value="" style="verticalLabelPosition=middle;verticalAlign=middle;html=1;shape=mxgraph.basic.rect;fillColor2=none;strokeWidth=1;size=16;indent=100;topLeftStyle=default;topRightStyle=rounded;strokeColor=light-dark(#b3bdc7, #ededed);fillColor=#BEC8D2;bottomRightStyle=rounded;labelPosition=center;align=center;spacing=0;spacingRight=3;fontColor=#FFFFFF;rotation=0;horizontal=1;fontFamily=Google Sans;fontSource=https%3A%2F%2Ffonts.googleapis.com%2Fcss%3Ffamily%3DGoogle%2BSans;" parent="1pv9uvoy4DJZf9Z1PrCG-16" vertex="1">
          <mxGeometry width="13" height="15" as="geometry" />
        </mxCell>
        <mxCell id="1pv9uvoy4DJZf9Z1PrCG-18" value="" style="shape=image;verticalLabelPosition=bottom;labelBackgroundColor=default;verticalAlign=top;aspect=fixed;imageAspect=0;editableCssRules=.*;image=data:image/svg+xml,PHN2ZyB4bWxuczp4bGluaz0iaHR0cDovL3d3dy53My5vcmcvMTk5OS94bGluayIgeG1sbnM9Imh0dHA6Ly93d3cudzMub3JnLzIwMDAvc3ZnIiB2ZXJzaW9uPSIxLjEiIHZpZXdCb3g9IjAgMCAyNCAyNCIgaGVpZ2h0PSI4MDBweCIgd2lkdGg9IjgwMHB4Ij4mI3hhOyAgICA8dGl0bGU+cGx1Z2luXzJfbGluZTwvdGl0bGU+JiN4YTsgICAgPGcgZmlsbC1ydWxlPSJldmVub2RkIiBmaWxsPSJub25lIiBzdHJva2Utd2lkdGg9IjEiIHN0cm9rZT0ibm9uZSIgaWQ9Iumhtemdoi0xIj4mI3hhOyAgICAgICAgPGcgdHJhbnNmb3JtPSJ0cmFuc2xhdGUoLTMzNi4wMDAwMDAsIC0xOTIuMDAwMDAwKSIgaWQ9IkRldmljZSI+JiN4YTsgICAgICAgICAgICA8ZyB0cmFuc2Zvcm09InRyYW5zbGF0ZSgzMzYuMDAwMDAwLCAxOTIuMDAwMDAwKSIgaWQ9InBsdWdpbl8yX2xpbmUiPiYjeGE7ICAgICAgICAgICAgICAgIDxwYXRoIGZpbGwtcnVsZT0ibm9uemVybyIgaWQ9Ik1pbmdDdXRlIiBkPSJNMjQsMCBMMjQsMjQgTDAsMjQgTDAsMCBMMjQsMCBaIE0xMi41OTM0OTAxLDIzLjI1Nzg0MSBMMTIuNTgxOTQwMiwyMy4yNTk1MTMxIEwxMi41MTA4Nzc3LDIzLjI5NTA0MzkgTDEyLjQ5MTg3OTEsMjMuMjk4NzQ2OSBMMTIuNDkxODc5MSwyMy4yOTg3NDY5IEwxMi40NzY3MTUyLDIzLjI5NTA0MzkgTDEyLjQwNTY1NDgsMjMuMjU5NTEzMSBDMTIuMzk1ODIyOSwyMy4yNTYzNjYyIDEyLjM4NzA0OTMsMjMuMjU5MDIzNSAxMi4zODIxNDIxLDIzLjI2NDkwNzQgTDEyLjM3ODAzMjMsMjMuMjc1ODMxIEwxMi4zNjA5NDEsMjMuNzAzMTA5NyBMMTIuMzY1ODk0NywyMy43MjM0OTk0IEwxMi4zNzY5MDQ4LDIzLjczNTcxMzkgTDEyLjQ4MDQ3NzcsMjMuODA5NjkzMSBMMTIuNDk1MzQ5MSwyMy44MTM2MTM0IEwxMi40OTUzNDkxLDIzLjgxMzYxMzQgTDEyLjUwNzExNTIsMjMuODA5NjkzMSBMMTIuNjEwNjkwMiwyMy43MzU3MTM5IEwxMi42MjMyOTM4LDIzLjcxOTY3MzMgTDEyLjYyMzI5MzgsMjMuNzE5NjczMyBMMTIuNjI2NjUyNywyMy43MDMxMDk3IEwxMi42MDk1NjEsMjMuMjc1ODMxIEMxMi42MDc1NzI0LDIzLjI2NTcwMTMgMTIuNjAxMDExMiwyMy4yNTkyOTkzIDEyLjU5MzQ5MDEsMjMuMjU3ODQxIEwxMi41OTM0OTAxLDIzLjI1Nzg0MSBaIE0xMi44NTgzOTA2LDIzLjE0NTI4NjIgTDEyLjg0NDU0ODUsMjMuMTQ3MzA3MiBMMTIuNjU5ODQ0MywyMy4yMzk2NTk3IEwxMi42NDk4ODIyLDIzLjI0OTkwNTIgTDEyLjY0OTg4MjIsMjMuMjQ5OTA1MiBMMTIuNjQ3MTk0MywyMy4yNjExMTE0IEwxMi42NjUwOTQzLDIzLjY5MDYzODkgTDEyLjY2OTkzNDksMjMuNzAzNDE3OCBMMTIuNjY5OTM0OSwyMy43MDM0MTc4IEwxMi42NzgzODYsMjMuNzEwNDkzMSBMMTIuODc5MzQwMiwyMy44MDMyMzg5IEMxMi44OTE0Mjg1LDIzLjgwNjg5OTkgMTIuOTAyMjMzMywyMy44MDI5ODc1IDEyLjkwNzgyODYsMjMuNzk1MjI2NCBMMTIuOTExODIzNSwyMy43ODExNjM5IEwxMi44Nzc2Nzc3LDIzLjE2NjUzMzEgQzEyLjg3NTI4ODIsMjMuMTU0NTg5NyAxMi44Njc0MTAyLDIzLjE0NzAwMTYgMTIuODU4MzkwNiwyMy4xNDUyODYyIEwxMi44NTgzOTA2LDIzLjE0NTI4NjIgWiBNMTIuMTQzMDQ3MywyMy4xNDczMDcyIEMxMi4xMzMyMTc4LDIzLjE0MjM5MjUgMTIuMTIyMTc2MywyMy4xNDUyNjA2IDEyLjExNTYzNjUsMjMuMTUyNTk1NCBMMTIuMTA5OTE3MywyMy4xNjY1MzMxIEwxMi4wNzU3NzE0LDIzLjc4MTE2MzkgQzEyLjA3NTEzMjMsMjMuNzkyNjYzOSAxMi4wODI4MDk5LDIzLjgwMTg2MDIgMTIuMDkyNjQ4MSwyMy44MDQ1Njc2IEwxMi4xMDgyNTYsMjMuODAzMjM4OSBMMTIuMzA5MjEwNiwyMy43MTA0OTMxIEwxMi4zMTg2NDk3LDIzLjcwMjQzNDcgTDEyLjMxODY0OTcsMjMuNzAyNDM0NyBMMTIuMzIyNTA0MywyMy42OTA2Mzg5IEwxMi4zNDA0MDEsMjMuMjYxMTExNCBMMTIuMzM3MjQ1LDIzLjI0ODUxNzYgTDEyLjMzNzI0NSwyMy4yNDg1MTc2IEwxMi4zMjc3NTMxLDIzLjIzOTY1OTcgTDEyLjE0MzA0NzMsMjMuMTQ3MzA3MiBaIj4mI3hhOyYjeGE7PC9wYXRoPiYjeGE7ICAgICAgICAgICAgICAgIDxwYXRoIGZpbGw9IiMwOTI0NEIiIGlkPSLlvaLnirYiIGQ9Ik0xMC41LDQgQzkuNDA1NjQsNCA4LjY5Mzg3LDUuMTUxNjcgOS4xODMyOCw2LjEzMDQ5IEw5LjM0NTY1LDYuNDU1MjMgQzkuNzAwNTEsNy4xNjQ5NSA5LjE4NDQyLDggOC4zOTA5Miw4IEw1LDggQzQuNDQ3NzIsOCA0LDguNDQ3NzIgNCw5IEw0LDEwLjE5NDQgQzUuODIwODQsMTAuMDg1MyA3LjUsMTEuNTI1MiA3LjUsMTMuNSBDNy41LDE1LjQ3NDggNS44MjA4NCwxNi45MTQ3IDQsMTYuODA1NiBMNCwxOSBDNCwxOS41NTIzIDQuNDQ3NzIsMjAgNSwyMCBMNy4xOTQzNSwyMCBDNy4wODUzNCwxOC4xNzkyIDguNTI1MTYsMTYuNSAxMC41LDE2LjUgQzEyLjQ3NDgsMTYuNSAxMy45MTQ3LDE4LjE3OTIgMTMuODA1NiwyMCBMMTUsMjAgQzE1LjU1MjMsMjAgMTYsMTkuNTUyMyAxNiwxOSBMMTYsMTUuNjA5MSBDMTYsMTQuODE1NiAxNi44MzUsMTQuMjk5NSAxNy41NDQ4LDE0LjY1NDQgTDE3Ljg2OTUsMTQuODE2NyBDMTguODQ4MywxNS4zMDYxIDIwLDE0LjU5NDQgMjAsMTMuNSBDMjAsMTIuNDA1NiAxOC44NDgzLDExLjY5MzkgMTcuODY5NSwxMi4xODMzIEwxNy41NDQ4LDEyLjM0NTYgQzE2LjgzNSwxMi43MDA1IDE2LDEyLjE4NDQgMTYsMTEuMzkwOSBMMTYsOSBDMTYsOC40NDc3MiAxNS41NTIzLDggMTUsOCBMMTIuNjA5MSw4IEMxMS44MTU2LDggMTEuMjk5NSw3LjE2NDk1IDExLjY1NDQsNi40NTUyMyBMMTEuODE2Nyw2LjEzMDQ5IEMxMi4zMDYxLDUuMTUxNjcgMTEuNTk0NCw0IDEwLjUsNCBaIE03LjA2NDQxLDYgQzYuNzQ4MjIsMy45ODI3NCA4LjI5NDc3LDIgMTAuNSwyIEMxMi43MDUyLDIgMTQuMjUxOCwzLjk4Mjc0IDEzLjkzNTYsNiBMMTUsNiBDMTYuNjU2OSw2IDE4LDcuMzQzMTUgMTgsOSBMMTgsMTAuMDY0NCBDMjAuMDE3Myw5Ljc0ODIyIDIyLDExLjI5NDggMjIsMTMuNSBDMjIsMTUuNzA1MiAyMC4wMTczLDE3LjI1MTggMTgsMTYuOTM1NiBMMTgsMTkgQzE4LDIwLjY1NjkgMTYuNjU2OSwyMiAxNSwyMiBMMTIuNTkyOSwyMiBDMTEuODMxLDIyIDExLjMxNzMsMjEuMjIxIDExLjYxNzQsMjAuNTIwNyBMMTEuNzAyMSwyMC4zMjMxIEMxMi4wNzIsMTkuNDYwMSAxMS40MzksMTguNSAxMC41LDE4LjUgQzkuNTYxMDUsMTguNSA4LjkyNzk5LDE5LjQ2MDEgOS4yOTc4NiwyMC4zMjMxIEw5LjM4MjU2LDIwLjUyMDcgQzkuNjgyNjgsMjEuMjIxIDkuMTY5LDIyIDguNDA3MTIsMjIgTDUsMjIgQzMuMzQzMTUsMjIgMiwyMC42NTY5IDIsMTkgTDIsMTUuNTkyOSBDMiwxNC44MzEgMi43NzksMTQuMzE3MyAzLjQ3OTI5LDE0LjYxNzQgTDMuNjc2OTEsMTQuNzAyMSBDNC41Mzk5NCwxNS4wNzIgNS41LDE0LjQzOSA1LjUsMTMuNSBDNS41LDEyLjU2MSA0LjUzOTk0LDExLjkyOCAzLjY3NjkxLDEyLjI5NzkgTDMuNDc5MjksMTIuMzgyNiBDMi43NzksMTIuNjgyNyAyLDEyLjE2OSAyLDExLjQwNzEgTDIsOSBDMiw3LjM0MzE1IDMuMzQzMTUsNiA1LDYgTDcuMDY0NDEsNiBaIj4mI3hhOyYjeGE7PC9wYXRoPiYjeGE7ICAgICAgICAgICAgPC9nPiYjeGE7ICAgICAgICA8L2c+JiN4YTsgICAgPC9nPiYjeGE7PC9zdmc+;" parent="1pv9uvoy4DJZf9Z1PrCG-16" vertex="1">
          <mxGeometry x="1.25" y="2.25" width="10.5" height="10.5" as="geometry" />
        </mxCell>
        <mxCell id="1pv9uvoy4DJZf9Z1PrCG-19" value="" style="group" parent="v35DyY4_wD7kl4gQBfIq-1" vertex="1" connectable="0">
          <mxGeometry x="1746" y="1713" width="13" height="15" as="geometry" />
        </mxCell>
        <mxCell id="1pv9uvoy4DJZf9Z1PrCG-20" value="" style="verticalLabelPosition=middle;verticalAlign=middle;html=1;shape=mxgraph.basic.rect;fillColor2=none;strokeWidth=1;size=16;indent=100;topLeftStyle=default;topRightStyle=rounded;strokeColor=light-dark(#b3bdc7, #ededed);fillColor=#BEC8D2;bottomRightStyle=rounded;labelPosition=center;align=center;spacing=0;spacingRight=3;fontColor=#FFFFFF;rotation=0;horizontal=1;fontFamily=Google Sans;fontSource=https%3A%2F%2Ffonts.googleapis.com%2Fcss%3Ffamily%3DGoogle%2BSans;" parent="1pv9uvoy4DJZf9Z1PrCG-19" vertex="1">
          <mxGeometry width="13" height="15" as="geometry" />
        </mxCell>
        <mxCell id="1pv9uvoy4DJZf9Z1PrCG-21" value="" style="shape=image;verticalLabelPosition=bottom;labelBackgroundColor=default;verticalAlign=top;aspect=fixed;imageAspect=0;editableCssRules=.*;image=data:image/svg+xml,PHN2ZyB4bWxuczp4bGluaz0iaHR0cDovL3d3dy53My5vcmcvMTk5OS94bGluayIgeG1sbnM9Imh0dHA6Ly93d3cudzMub3JnLzIwMDAvc3ZnIiB2ZXJzaW9uPSIxLjEiIHZpZXdCb3g9IjAgMCAyNCAyNCIgaGVpZ2h0PSI4MDBweCIgd2lkdGg9IjgwMHB4Ij4mI3hhOyAgICA8dGl0bGU+cGx1Z2luXzJfbGluZTwvdGl0bGU+JiN4YTsgICAgPGcgZmlsbC1ydWxlPSJldmVub2RkIiBmaWxsPSJub25lIiBzdHJva2Utd2lkdGg9IjEiIHN0cm9rZT0ibm9uZSIgaWQ9Iumhtemdoi0xIj4mI3hhOyAgICAgICAgPGcgdHJhbnNmb3JtPSJ0cmFuc2xhdGUoLTMzNi4wMDAwMDAsIC0xOTIuMDAwMDAwKSIgaWQ9IkRldmljZSI+JiN4YTsgICAgICAgICAgICA8ZyB0cmFuc2Zvcm09InRyYW5zbGF0ZSgzMzYuMDAwMDAwLCAxOTIuMDAwMDAwKSIgaWQ9InBsdWdpbl8yX2xpbmUiPiYjeGE7ICAgICAgICAgICAgICAgIDxwYXRoIGZpbGwtcnVsZT0ibm9uemVybyIgaWQ9Ik1pbmdDdXRlIiBkPSJNMjQsMCBMMjQsMjQgTDAsMjQgTDAsMCBMMjQsMCBaIE0xMi41OTM0OTAxLDIzLjI1Nzg0MSBMMTIuNTgxOTQwMiwyMy4yNTk1MTMxIEwxMi41MTA4Nzc3LDIzLjI5NTA0MzkgTDEyLjQ5MTg3OTEsMjMuMjk4NzQ2OSBMMTIuNDkxODc5MSwyMy4yOTg3NDY5IEwxMi40NzY3MTUyLDIzLjI5NTA0MzkgTDEyLjQwNTY1NDgsMjMuMjU5NTEzMSBDMTIuMzk1ODIyOSwyMy4yNTYzNjYyIDEyLjM4NzA0OTMsMjMuMjU5MDIzNSAxMi4zODIxNDIxLDIzLjI2NDkwNzQgTDEyLjM3ODAzMjMsMjMuMjc1ODMxIEwxMi4zNjA5NDEsMjMuNzAzMTA5NyBMMTIuMzY1ODk0NywyMy43MjM0OTk0IEwxMi4zNzY5MDQ4LDIzLjczNTcxMzkgTDEyLjQ4MDQ3NzcsMjMuODA5NjkzMSBMMTIuNDk1MzQ5MSwyMy44MTM2MTM0IEwxMi40OTUzNDkxLDIzLjgxMzYxMzQgTDEyLjUwNzExNTIsMjMuODA5NjkzMSBMMTIuNjEwNjkwMiwyMy43MzU3MTM5IEwxMi42MjMyOTM4LDIzLjcxOTY3MzMgTDEyLjYyMzI5MzgsMjMuNzE5NjczMyBMMTIuNjI2NjUyNywyMy43MDMxMDk3IEwxMi42MDk1NjEsMjMuMjc1ODMxIEMxMi42MDc1NzI0LDIzLjI2NTcwMTMgMTIuNjAxMDExMiwyMy4yNTkyOTkzIDEyLjU5MzQ5MDEsMjMuMjU3ODQxIEwxMi41OTM0OTAxLDIzLjI1Nzg0MSBaIE0xMi44NTgzOTA2LDIzLjE0NTI4NjIgTDEyLjg0NDU0ODUsMjMuMTQ3MzA3MiBMMTIuNjU5ODQ0MywyMy4yMzk2NTk3IEwxMi42NDk4ODIyLDIzLjI0OTkwNTIgTDEyLjY0OTg4MjIsMjMuMjQ5OTA1MiBMMTIuNjQ3MTk0MywyMy4yNjExMTE0IEwxMi42NjUwOTQzLDIzLjY5MDYzODkgTDEyLjY2OTkzNDksMjMuNzAzNDE3OCBMMTIuNjY5OTM0OSwyMy43MDM0MTc4IEwxMi42NzgzODYsMjMuNzEwNDkzMSBMMTIuODc5MzQwMiwyMy44MDMyMzg5IEMxMi44OTE0Mjg1LDIzLjgwNjg5OTkgMTIuOTAyMjMzMywyMy44MDI5ODc1IDEyLjkwNzgyODYsMjMuNzk1MjI2NCBMMTIuOTExODIzNSwyMy43ODExNjM5IEwxMi44Nzc2Nzc3LDIzLjE2NjUzMzEgQzEyLjg3NTI4ODIsMjMuMTU0NTg5NyAxMi44Njc0MTAyLDIzLjE0NzAwMTYgMTIuODU4MzkwNiwyMy4xNDUyODYyIEwxMi44NTgzOTA2LDIzLjE0NTI4NjIgWiBNMTIuMTQzMDQ3MywyMy4xNDczMDcyIEMxMi4xMzMyMTc4LDIzLjE0MjM5MjUgMTIuMTIyMTc2MywyMy4xNDUyNjA2IDEyLjExNTYzNjUsMjMuMTUyNTk1NCBMMTIuMTA5OTE3MywyMy4xNjY1MzMxIEwxMi4wNzU3NzE0LDIzLjc4MTE2MzkgQzEyLjA3NTEzMjMsMjMuNzkyNjYzOSAxMi4wODI4MDk5LDIzLjgwMTg2MDIgMTIuMDkyNjQ4MSwyMy44MDQ1Njc2IEwxMi4xMDgyNTYsMjMuODAzMjM4OSBMMTIuMzA5MjEwNiwyMy43MTA0OTMxIEwxMi4zMTg2NDk3LDIzLjcwMjQzNDcgTDEyLjMxODY0OTcsMjMuNzAyNDM0NyBMMTIuMzIyNTA0MywyMy42OTA2Mzg5IEwxMi4zNDA0MDEsMjMuMjYxMTExNCBMMTIuMzM3MjQ1LDIzLjI0ODUxNzYgTDEyLjMzNzI0NSwyMy4yNDg1MTc2IEwxMi4zMjc3NTMxLDIzLjIzOTY1OTcgTDEyLjE0MzA0NzMsMjMuMTQ3MzA3MiBaIj4mI3hhOyYjeGE7PC9wYXRoPiYjeGE7ICAgICAgICAgICAgICAgIDxwYXRoIGZpbGw9IiMwOTI0NEIiIGlkPSLlvaLnirYiIGQ9Ik0xMC41LDQgQzkuNDA1NjQsNCA4LjY5Mzg3LDUuMTUxNjcgOS4xODMyOCw2LjEzMDQ5IEw5LjM0NTY1LDYuNDU1MjMgQzkuNzAwNTEsNy4xNjQ5NSA5LjE4NDQyLDggOC4zOTA5Miw4IEw1LDggQzQuNDQ3NzIsOCA0LDguNDQ3NzIgNCw5IEw0LDEwLjE5NDQgQzUuODIwODQsMTAuMDg1MyA3LjUsMTEuNTI1MiA3LjUsMTMuNSBDNy41LDE1LjQ3NDggNS44MjA4NCwxNi45MTQ3IDQsMTYuODA1NiBMNCwxOSBDNCwxOS41NTIzIDQuNDQ3NzIsMjAgNSwyMCBMNy4xOTQzNSwyMCBDNy4wODUzNCwxOC4xNzkyIDguNTI1MTYsMTYuNSAxMC41LDE2LjUgQzEyLjQ3NDgsMTYuNSAxMy45MTQ3LDE4LjE3OTIgMTMuODA1NiwyMCBMMTUsMjAgQzE1LjU1MjMsMjAgMTYsMTkuNTUyMyAxNiwxOSBMMTYsMTUuNjA5MSBDMTYsMTQuODE1NiAxNi44MzUsMTQuMjk5NSAxNy41NDQ4LDE0LjY1NDQgTDE3Ljg2OTUsMTQuODE2NyBDMTguODQ4MywxNS4zMDYxIDIwLDE0LjU5NDQgMjAsMTMuNSBDMjAsMTIuNDA1NiAxOC44NDgzLDExLjY5MzkgMTcuODY5NSwxMi4xODMzIEwxNy41NDQ4LDEyLjM0NTYgQzE2LjgzNSwxMi43MDA1IDE2LDEyLjE4NDQgMTYsMTEuMzkwOSBMMTYsOSBDMTYsOC40NDc3MiAxNS41NTIzLDggMTUsOCBMMTIuNjA5MSw4IEMxMS44MTU2LDggMTEuMjk5NSw3LjE2NDk1IDExLjY1NDQsNi40NTUyMyBMMTEuODE2Nyw2LjEzMDQ5IEMxMi4zMDYxLDUuMTUxNjcgMTEuNTk0NCw0IDEwLjUsNCBaIE03LjA2NDQxLDYgQzYuNzQ4MjIsMy45ODI3NCA4LjI5NDc3LDIgMTAuNSwyIEMxMi43MDUyLDIgMTQuMjUxOCwzLjk4Mjc0IDEzLjkzNTYsNiBMMTUsNiBDMTYuNjU2OSw2IDE4LDcuMzQzMTUgMTgsOSBMMTgsMTAuMDY0NCBDMjAuMDE3Myw5Ljc0ODIyIDIyLDExLjI5NDggMjIsMTMuNSBDMjIsMTUuNzA1MiAyMC4wMTczLDE3LjI1MTggMTgsMTYuOTM1NiBMMTgsMTkgQzE4LDIwLjY1NjkgMTYuNjU2OSwyMiAxNSwyMiBMMTIuNTkyOSwyMiBDMTEuODMxLDIyIDExLjMxNzMsMjEuMjIxIDExLjYxNzQsMjAuNTIwNyBMMTEuNzAyMSwyMC4zMjMxIEMxMi4wNzIsMTkuNDYwMSAxMS40MzksMTguNSAxMC41LDE4LjUgQzkuNTYxMDUsMTguNSA4LjkyNzk5LDE5LjQ2MDEgOS4yOTc4NiwyMC4zMjMxIEw5LjM4MjU2LDIwLjUyMDcgQzkuNjgyNjgsMjEuMjIxIDkuMTY5LDIyIDguNDA3MTIsMjIgTDUsMjIgQzMuMzQzMTUsMjIgMiwyMC42NTY5IDIsMTkgTDIsMTUuNTkyOSBDMiwxNC44MzEgMi43NzksMTQuMzE3MyAzLjQ3OTI5LDE0LjYxNzQgTDMuNjc2OTEsMTQuNzAyMSBDNC41Mzk5NCwxNS4wNzIgNS41LDE0LjQzOSA1LjUsMTMuNSBDNS41LDEyLjU2MSA0LjUzOTk0LDExLjkyOCAzLjY3NjkxLDEyLjI5NzkgTDMuNDc5MjksMTIuMzgyNiBDMi43NzksMTIuNjgyNyAyLDEyLjE2OSAyLDExLjQwNzEgTDIsOSBDMiw3LjM0MzE1IDMuMzQzMTUsNiA1LDYgTDcuMDY0NDEsNiBaIj4mI3hhOyYjeGE7PC9wYXRoPiYjeGE7ICAgICAgICAgICAgPC9nPiYjeGE7ICAgICAgICA8L2c+JiN4YTsgICAgPC9nPiYjeGE7PC9zdmc+;" parent="1pv9uvoy4DJZf9Z1PrCG-19" vertex="1">
          <mxGeometry x="1.25" y="2.25" width="10.5" height="10.5" as="geometry" />
        </mxCell>
      </root>
    </mxGraphModel>
  </diagram>
  <diagram name="[1] schema" id="z_Gu7VJD9jsG575t3YCf">
    <mxGraphModel dx="2074" dy="1155" grid="0" gridSize="2" guides="1" tooltips="1" connect="1" arrows="1" fold="1" page="1" pageScale="1" pageWidth="3300" pageHeight="4681" background="#4D5766" math="0" shadow="0">
      <root>
        <mxCell id="0" />
        <mxCell id="1" parent="0" />
        <mxCell id="HGMKZrDhag_7oUJbCoah-1" value="" style="rounded=1;whiteSpace=wrap;html=1;arcSize=2;fillColor=#001135;" parent="1" vertex="1">
          <mxGeometry x="1203" y="1133" width="303" height="265" as="geometry" />
        </mxCell>
        <mxCell id="HGMKZrDhag_7oUJbCoah-2" value="&lt;div style=&quot;color: rgb(204, 202, 194); font-size: 16px; line-height: 20px; white-space-collapse: preserve;&quot;&gt;&lt;div style=&quot;font-size: 16px;&quot;&gt;&lt;font data-font-src=&quot;https://fonts.googleapis.com/css?family=Google+Sans&quot; style=&quot;font-size: 16px;&quot;&gt;&lt;span style=&quot;color: rgb(255, 173, 102); font-size: 16px;&quot;&gt;def&lt;/span&gt; &lt;span style=&quot;color: rgb(255, 209, 115); font-size: 16px;&quot;&gt;_schema&lt;/span&gt;(&lt;span style=&quot;color: rgb(223, 191, 255); font-size: 16px;&quot;&gt;self&lt;/span&gt;):&lt;/font&gt;&lt;/div&gt;&lt;div style=&quot;font-size: 16px;&quot;&gt;&lt;font style=&quot;font-size: 16px;&quot;&gt;    root &lt;span style=&quot;color: rgb(242, 158, 116); font-size: 16px;&quot;&gt;=&lt;/span&gt; &lt;span style=&quot;color: rgb(255, 209, 115); font-size: 16px;&quot;&gt;FixedSchemaRoot&lt;/span&gt;()&lt;/font&gt;&lt;/div&gt;&lt;div style=&quot;font-size: 16px;&quot;&gt;&lt;font style=&quot;font-size: 16px;&quot;&gt;    root.&lt;span style=&quot;color: rgb(255, 209, 115); font-size: 16px;&quot;&gt;add_child&lt;/span&gt;(&lt;/font&gt;&lt;/div&gt;&lt;div style=&quot;font-size: 16px;&quot;&gt;&lt;font style=&quot;font-size: 16px;&quot;&gt;        &lt;span style=&quot;color: rgb(213, 255, 128); font-size: 16px;&quot;&gt;&quot;uptime&quot;&lt;/span&gt;,&lt;/font&gt;&lt;/div&gt;&lt;div style=&quot;font-size: 16px;&quot;&gt;&lt;font style=&quot;font-size: 16px;&quot;&gt;        &lt;span style=&quot;color: rgb(223, 191, 255); font-size: 16px;&quot;&gt;fields&lt;/span&gt;&lt;span style=&quot;color: rgb(242, 158, 116); font-size: 16px;&quot;&gt;=&lt;/span&gt;[&lt;/font&gt;&lt;/div&gt;&lt;div style=&quot;font-size: 16px;&quot;&gt;&lt;font style=&quot;font-size: 16px;&quot;&gt;            &lt;span style=&quot;color: rgb(213, 255, 128); font-size: 16px;&quot;&gt;&quot;Uptime&quot;&lt;/span&gt;,&lt;/font&gt;&lt;/div&gt;&lt;div style=&quot;font-size: 16px;&quot;&gt;&lt;font style=&quot;font-size: 16px;&quot;&gt;            &lt;span style=&quot;color: rgb(213, 255, 128); font-size: 16px;&quot;&gt;&quot;Last Booted&quot;&lt;/span&gt;,&lt;/font&gt;&lt;/div&gt;&lt;div style=&quot;font-size: 16px;&quot;&gt;&lt;font style=&quot;font-size: 16px;&quot;&gt;        ],&lt;/font&gt;&lt;/div&gt;&lt;div style=&quot;font-size: 16px;&quot;&gt;&lt;font style=&quot;font-size: 16px;&quot;&gt;    )&lt;/font&gt;&lt;/div&gt;&lt;div style=&quot;font-size: 16px;&quot;&gt;&lt;font style=&quot;font-size: 16px;&quot;&gt;    &lt;span style=&quot;color: rgb(255, 173, 102); font-size: 16px;&quot;&gt;return&lt;/span&gt; root&lt;/font&gt;&lt;/div&gt;&lt;/div&gt;" style="text;html=1;align=left;verticalAlign=middle;resizable=0;points=[];autosize=1;strokeColor=none;fillColor=none;fontSize=16;fontFamily=Fira Code;fontSource=https%3A%2F%2Ffonts.googleapis.com%2Fcss%3Ffamily%3DFira%2BCode;" parent="1" vertex="1">
          <mxGeometry x="1218" y="1164" width="287" height="212" as="geometry" />
        </mxCell>
        <mxCell id="HGMKZrDhag_7oUJbCoah-28" value="" style="endArrow=classic;html=1;rounded=0;strokeColor=#EDF3F5;strokeWidth=4;endFill=1;" parent="1" edge="1">
          <mxGeometry width="50" height="50" relative="1" as="geometry">
            <mxPoint x="1529" y="1271" as="sourcePoint" />
            <mxPoint x="1616" y="1271" as="targetPoint" />
          </mxGeometry>
        </mxCell>
        <mxCell id="HGMKZrDhag_7oUJbCoah-44" value="" style="rounded=1;whiteSpace=wrap;html=1;arcSize=2;fillColor=none;strokeColor=default;fillStyle=dots;strokeWidth=2;perimeterSpacing=2;dashed=1;gradientColor=none;fontFamily=Google Sans;fontSource=https%3A%2F%2Ffonts.googleapis.com%2Fcss%3Ffamily%3DGoogle%2BSans;" parent="1" vertex="1">
          <mxGeometry x="1645" y="1134" width="281" height="265" as="geometry" />
        </mxCell>
        <mxCell id="HGMKZrDhag_7oUJbCoah-45" value="" style="verticalLabelPosition=bottom;verticalAlign=top;html=1;shape=mxgraph.basic.rect;fillColor2=none;strokeWidth=1;size=5.19;indent=50;topLeftStyle=rounded;topRightStyle=rounded;strokeColor=none;fillColor=#273142;fillStyle=solid;fontFamily=Google Sans;fontSource=https%3A%2F%2Ffonts.googleapis.com%2Fcss%3Ffamily%3DGoogle%2BSans;" parent="1" vertex="1">
          <mxGeometry x="1645" y="1134" width="281" height="32" as="geometry" />
        </mxCell>
        <mxCell id="HGMKZrDhag_7oUJbCoah-46" value="&lt;font color=&quot;#ffffff&quot;&gt;/ &lt;span style=&quot;font-weight: normal;&quot;&gt;(schema root)&lt;/span&gt;&lt;/font&gt;" style="text;html=1;align=left;verticalAlign=middle;resizable=0;points=[];autosize=1;strokeColor=none;fillColor=none;fontSize=16;fontFamily=Google Sans;fontSource=https%3A%2F%2Ffonts.googleapis.com%2Fcss%3Ffamily%3DGoogle%2BSans;fontStyle=1" parent="1" vertex="1">
          <mxGeometry x="1649" y="1133" width="127" height="31" as="geometry" />
        </mxCell>
        <mxCell id="HGMKZrDhag_7oUJbCoah-47" value="" style="rounded=1;whiteSpace=wrap;html=1;arcSize=2;fillColor=none;fontColor=#edf3f5;strokeColor=#98A2AE;dashed=1;strokeWidth=2;fontFamily=Google Sans;fontSource=https%3A%2F%2Ffonts.googleapis.com%2Fcss%3Ffamily%3DGoogle%2BSans;" parent="1" vertex="1">
          <mxGeometry x="1683" y="1190" width="211" height="180" as="geometry" />
        </mxCell>
        <mxCell id="HGMKZrDhag_7oUJbCoah-48" value="" style="verticalLabelPosition=bottom;verticalAlign=top;html=1;shape=mxgraph.basic.rect;fillColor2=none;strokeWidth=1;size=3.89;indent=99.13;topLeftStyle=rounded;topRightStyle=rounded;strokeColor=none;fillColor=#EDF3F5;fontFamily=Google Sans;fontSource=https%3A%2F%2Ffonts.googleapis.com%2Fcss%3Ffamily%3DGoogle%2BSans;" parent="1" vertex="1">
          <mxGeometry x="1683" y="1190" width="211" height="32" as="geometry" />
        </mxCell>
        <mxCell id="HGMKZrDhag_7oUJbCoah-49" value="&lt;font color=&quot;#001135&quot;&gt;uptime&lt;/font&gt;" style="text;html=1;align=left;verticalAlign=middle;resizable=0;points=[];autosize=1;strokeColor=none;fillColor=none;fontSize=16;fontFamily=Google Sans;fontSource=https%3A%2F%2Ffonts.googleapis.com%2Fcss%3Ffamily%3DGoogle%2BSans;fontStyle=1" parent="1" vertex="1">
          <mxGeometry x="1689" y="1191" width="68" height="31" as="geometry" />
        </mxCell>
        <mxCell id="HGMKZrDhag_7oUJbCoah-50" value="&lt;font style=&quot;font-size: 14px;&quot;&gt;Schema&lt;/font&gt;" style="text;html=1;align=right;verticalAlign=middle;resizable=0;points=[];autosize=1;strokeColor=none;fillColor=none;fontSize=14;fontFamily=Google Sans;fontSource=https%3A%2F%2Ffonts.googleapis.com%2Fcss%3Ffamily%3DGoogle%2BSans;fontColor=#98A2AE;" parent="1" vertex="1">
          <mxGeometry x="1853" y="1134" width="69" height="29" as="geometry" />
        </mxCell>
        <mxCell id="HGMKZrDhag_7oUJbCoah-51" value="&lt;font color=&quot;#bec8d2&quot; style=&quot;font-size: 14px;&quot;&gt;container&lt;/font&gt;" style="text;html=1;align=right;verticalAlign=middle;resizable=0;points=[];autosize=1;strokeColor=none;fillColor=none;fontSize=14;fontFamily=Google Sans;fontSource=https%3A%2F%2Ffonts.googleapis.com%2Fcss%3Ffamily%3DGoogle%2BSans;" parent="1" vertex="1">
          <mxGeometry x="1813" y="1193" width="78" height="29" as="geometry" />
        </mxCell>
        <mxCell id="HGMKZrDhag_7oUJbCoah-52" value="" style="endArrow=none;dashed=1;html=1;dashPattern=1 3;strokeWidth=2;rounded=0;strokeColor=#EDF3F5;entryX=0.053;entryY=1.071;entryDx=0;entryDy=0;entryPerimeter=0;exitX=-0.008;exitY=0.094;exitDx=0;exitDy=0;exitPerimeter=0;fontFamily=Google Sans;fontSource=https%3A%2F%2Ffonts.googleapis.com%2Fcss%3Ffamily%3DGoogle%2BSans;" parent="1" source="HGMKZrDhag_7oUJbCoah-47" target="HGMKZrDhag_7oUJbCoah-45" edge="1">
          <mxGeometry width="50" height="50" relative="1" as="geometry">
            <mxPoint x="1673" y="1337" as="sourcePoint" />
            <mxPoint x="1723" y="1287" as="targetPoint" />
            <Array as="points">
              <mxPoint x="1660" y="1207" />
            </Array>
          </mxGeometry>
        </mxCell>
        <mxCell id="HGMKZrDhag_7oUJbCoah-53" value="Uptime" style="rounded=1;whiteSpace=wrap;html=1;arcSize=50;fillColor=none;strokeColor=#FFFFFF;fontSize=14;align=right;spacingLeft=6;dashed=1;fontColor=#FFFFFF;fontFamily=Google Sans;fontSource=https%3A%2F%2Ffonts.googleapis.com%2Fcss%3Ffamily%3DGoogle%2BSans;spacingRight=2;strokeWidth=1;" parent="1" vertex="1">
          <mxGeometry x="1716" y="1249" width="121" height="35" as="geometry" />
        </mxCell>
        <mxCell id="HGMKZrDhag_7oUJbCoah-54" value="Last Booted" style="rounded=1;whiteSpace=wrap;html=1;arcSize=50;fillColor=none;strokeColor=#FFFFFF;fontSize=14;align=right;spacingLeft=6;dashed=1;fontColor=#FFFFFF;fontFamily=Google Sans;fontSource=https%3A%2F%2Ffonts.googleapis.com%2Fcss%3Ffamily%3DGoogle%2BSans;spacingRight=2;" parent="1" vertex="1">
          <mxGeometry x="1716" y="1296" width="121" height="35" as="geometry" />
        </mxCell>
        <mxCell id="HGMKZrDhag_7oUJbCoah-55" value="" style="endArrow=none;dashed=1;html=1;dashPattern=1 3;strokeWidth=2;rounded=0;strokeColor=#EDF3F5;entryX=0.053;entryY=1.071;entryDx=0;entryDy=0;entryPerimeter=0;exitX=0;exitY=0.5;exitDx=0;exitDy=0;fontFamily=Google Sans;fontSource=https%3A%2F%2Ffonts.googleapis.com%2Fcss%3Ffamily%3DGoogle%2BSans;" parent="1" source="HGMKZrDhag_7oUJbCoah-53" edge="1">
          <mxGeometry width="50" height="50" relative="1" as="geometry">
            <mxPoint x="1716" y="1261" as="sourcePoint" />
            <mxPoint x="1695" y="1222" as="targetPoint" />
            <Array as="points">
              <mxPoint x="1696" y="1267" />
            </Array>
          </mxGeometry>
        </mxCell>
        <mxCell id="HGMKZrDhag_7oUJbCoah-56" value="" style="endArrow=none;dashed=1;html=1;dashPattern=1 3;strokeWidth=2;rounded=0;strokeColor=#EDF3F5;exitX=0;exitY=0.5;exitDx=0;exitDy=0;fontFamily=Google Sans;fontSource=https%3A%2F%2Ffonts.googleapis.com%2Fcss%3Ffamily%3DGoogle%2BSans;" parent="1" source="HGMKZrDhag_7oUJbCoah-54" edge="1">
          <mxGeometry width="50" height="50" relative="1" as="geometry">
            <mxPoint x="1716" y="1312" as="sourcePoint" />
            <mxPoint x="1696" y="1267" as="targetPoint" />
            <Array as="points">
              <mxPoint x="1697" y="1314" />
            </Array>
          </mxGeometry>
        </mxCell>
        <mxCell id="ZtIQx4CLBh7AkSPlGvq_-1" value="" style="endArrow=none;html=1;rounded=1;entryX=0.25;entryY=0;entryDx=0;entryDy=0;exitX=0.25;exitY=1;exitDx=0;exitDy=0;dashed=1;strokeColor=#FFFFFF;strokeWidth=1;align=right;verticalAlign=middle;spacingLeft=6;spacingRight=2;arcSize=50;fontFamily=Google Sans;fontSource=https%3A%2F%2Ffonts.googleapis.com%2Fcss%3Ffamily%3DGoogle%2BSans;fontSize=14;fontColor=#FFFFFF;fillColor=none;" parent="1" source="HGMKZrDhag_7oUJbCoah-53" target="HGMKZrDhag_7oUJbCoah-53" edge="1">
          <mxGeometry width="50" height="50" relative="1" as="geometry">
            <mxPoint x="1710" y="1299" as="sourcePoint" />
            <mxPoint x="1760" y="1249" as="targetPoint" />
          </mxGeometry>
        </mxCell>
        <mxCell id="ZtIQx4CLBh7AkSPlGvq_-2" value="field" style="text;html=1;align=center;verticalAlign=middle;resizable=0;points=[];autosize=1;strokeColor=none;fillColor=none;fontColor=#FFFFFF;fontFamily=Google Sans;fontSource=https%3A%2F%2Ffonts.googleapis.com%2Fcss%3Ffamily%3DGoogle%2BSans;fontSize=11;textOpacity=50;" parent="1" vertex="1">
          <mxGeometry x="1711" y="1254" width="40" height="25" as="geometry" />
        </mxCell>
        <mxCell id="ZtIQx4CLBh7AkSPlGvq_-3" value="" style="endArrow=none;html=1;rounded=1;entryX=0.25;entryY=0;entryDx=0;entryDy=0;exitX=0.25;exitY=1;exitDx=0;exitDy=0;dashed=1;strokeColor=#FFFFFF;strokeWidth=1;align=right;verticalAlign=middle;spacingLeft=6;spacingRight=2;arcSize=50;fontFamily=Google Sans;fontSource=https%3A%2F%2Ffonts.googleapis.com%2Fcss%3Ffamily%3DGoogle%2BSans;fontSize=14;fontColor=#FFFFFF;fillColor=none;" parent="1" edge="1">
          <mxGeometry width="50" height="50" relative="1" as="geometry">
            <mxPoint x="1746" y="1331" as="sourcePoint" />
            <mxPoint x="1746" y="1296" as="targetPoint" />
          </mxGeometry>
        </mxCell>
        <mxCell id="ZtIQx4CLBh7AkSPlGvq_-4" value="field" style="text;html=1;align=center;verticalAlign=middle;resizable=0;points=[];autosize=1;strokeColor=none;fillColor=none;fontColor=#FFFFFF;fontFamily=Google Sans;fontSource=https%3A%2F%2Ffonts.googleapis.com%2Fcss%3Ffamily%3DGoogle%2BSans;fontSize=11;textOpacity=50;" parent="1" vertex="1">
          <mxGeometry x="1711" y="1301" width="40" height="25" as="geometry" />
        </mxCell>
      </root>
    </mxGraphModel>
  </diagram>
  <diagram name="[2] populate schema" id="2jO4DKBbPGhfN44IFJfD">
    <mxGraphModel dx="1430" dy="797" grid="0" gridSize="2" guides="1" tooltips="1" connect="1" arrows="1" fold="1" page="1" pageScale="1" pageWidth="3300" pageHeight="4681" background="#4D5766" math="0" shadow="0">
      <root>
        <mxCell id="GehNxyRLZ8iFV2p4zfdp-0" />
        <mxCell id="GehNxyRLZ8iFV2p4zfdp-1" parent="GehNxyRLZ8iFV2p4zfdp-0" />
        <mxCell id="GehNxyRLZ8iFV2p4zfdp-2" value="" style="rounded=1;whiteSpace=wrap;html=1;arcSize=2;fillColor=#001135;" parent="GehNxyRLZ8iFV2p4zfdp-1" vertex="1">
          <mxGeometry x="990" y="355" width="326" height="122" as="geometry" />
        </mxCell>
        <mxCell id="GehNxyRLZ8iFV2p4zfdp-3" value="&lt;div style=&quot;color: rgb(204, 202, 194); font-size: 16px; line-height: 20px; white-space-collapse: preserve;&quot;&gt;&lt;div style=&quot;font-size: 16px;&quot;&gt;&lt;div style=&quot;font-family: &amp;quot;JetBrains Mono&amp;quot;, &amp;quot;Fira Code&amp;quot;, Hasklig, Menlo, Monaco, &amp;quot;Courier New&amp;quot;, monospace, Menlo, Monaco, &amp;quot;Courier New&amp;quot;, monospace; font-size: 13px; line-height: 20px;&quot;&gt;&lt;div&gt;data &lt;span style=&quot;color: #f29e74;&quot;&gt;=&lt;/span&gt; &lt;span style=&quot;color: #73d0ff;&quot;&gt;Data&lt;/span&gt;(&lt;span style=&quot;color: #dfbfff;&quot;&gt;arguments&lt;/span&gt;.schema)&lt;/div&gt;&lt;div&gt;uptime_container &lt;span style=&quot;color: #f29e74;&quot;&gt;=&lt;/span&gt; data.uptime.&lt;span style=&quot;color: #ffd173;&quot;&gt;create&lt;/span&gt;()&lt;/div&gt;&lt;/div&gt;&lt;/div&gt;&lt;/div&gt;" style="text;html=1;align=left;verticalAlign=middle;resizable=0;points=[];autosize=1;strokeColor=none;fillColor=none;fontSize=16;fontFamily=JetBrains Mono;fontSource=https%3A%2F%2Ffonts.googleapis.com%2Fcss%3Ffamily%3DJetBrains%2BMono;labelBackgroundColor=none;" parent="GehNxyRLZ8iFV2p4zfdp-1" vertex="1">
          <mxGeometry x="1000" y="392.5" width="323" height="52" as="geometry" />
        </mxCell>
        <mxCell id="GehNxyRLZ8iFV2p4zfdp-4" value="" style="rounded=1;whiteSpace=wrap;html=1;arcSize=2;fillColor=#001135;strokeColor=none;fillStyle=auto;strokeWidth=0;perimeterSpacing=2;fontFamily=Google Sans;fontSource=https%3A%2F%2Ffonts.googleapis.com%2Fcss%3Ffamily%3DGoogle%2BSans;" parent="GehNxyRLZ8iFV2p4zfdp-1" vertex="1">
          <mxGeometry x="996" y="565" width="320" height="265" as="geometry" />
        </mxCell>
        <mxCell id="GehNxyRLZ8iFV2p4zfdp-5" value="" style="verticalLabelPosition=bottom;verticalAlign=top;html=1;shape=mxgraph.basic.rect;fillColor2=none;strokeWidth=1;size=5.19;indent=50;topLeftStyle=rounded;topRightStyle=rounded;strokeColor=none;fillColor=#273142;fontFamily=Google Sans;fontSource=https%3A%2F%2Ffonts.googleapis.com%2Fcss%3Ffamily%3DGoogle%2BSans;" parent="GehNxyRLZ8iFV2p4zfdp-1" vertex="1">
          <mxGeometry x="996" y="565" width="320" height="32" as="geometry" />
        </mxCell>
        <mxCell id="GehNxyRLZ8iFV2p4zfdp-6" value="&lt;font color=&quot;#ffffff&quot;&gt;/ &lt;span style=&quot;font-weight: normal;&quot;&gt;&lt;font style=&quot;font-size: 14px;&quot;&gt;(root)&lt;/font&gt;&lt;/span&gt;&lt;/font&gt;" style="text;html=1;align=left;verticalAlign=middle;resizable=0;points=[];autosize=1;strokeColor=none;fillColor=none;fontSize=16;fontFamily=Google Sans;fontSource=https%3A%2F%2Ffonts.googleapis.com%2Fcss%3Ffamily%3DGoogle%2BSans;fontStyle=1" parent="GehNxyRLZ8iFV2p4zfdp-1" vertex="1">
          <mxGeometry x="1002" y="564" width="62" height="31" as="geometry" />
        </mxCell>
        <mxCell id="GehNxyRLZ8iFV2p4zfdp-7" value="" style="rounded=1;whiteSpace=wrap;html=1;arcSize=2;fillColor=#98a2ae;fontColor=#edf3f5;strokeColor=none;fillStyle=solid;fontFamily=Google Sans;fontSource=https%3A%2F%2Ffonts.googleapis.com%2Fcss%3Ffamily%3DGoogle%2BSans;" parent="GehNxyRLZ8iFV2p4zfdp-1" vertex="1">
          <mxGeometry x="1058" y="621" width="211" height="180" as="geometry" />
        </mxCell>
        <mxCell id="GehNxyRLZ8iFV2p4zfdp-8" value="" style="verticalLabelPosition=bottom;verticalAlign=top;html=1;shape=mxgraph.basic.rect;fillColor2=none;strokeWidth=1;size=3.89;indent=99.13;topLeftStyle=rounded;topRightStyle=rounded;strokeColor=none;fillColor=#EDF3F5;fontFamily=Google Sans;fontSource=https%3A%2F%2Ffonts.googleapis.com%2Fcss%3Ffamily%3DGoogle%2BSans;" parent="GehNxyRLZ8iFV2p4zfdp-1" vertex="1">
          <mxGeometry x="1058" y="621" width="211" height="32" as="geometry" />
        </mxCell>
        <mxCell id="GehNxyRLZ8iFV2p4zfdp-9" value="&lt;font color=&quot;#001135&quot;&gt;uptime&lt;/font&gt;" style="text;html=1;align=left;verticalAlign=middle;resizable=0;points=[];autosize=1;strokeColor=none;fillColor=none;fontSize=16;fontFamily=Google Sans;fontSource=https%3A%2F%2Ffonts.googleapis.com%2Fcss%3Ffamily%3DGoogle%2BSans;fontStyle=1" parent="GehNxyRLZ8iFV2p4zfdp-1" vertex="1">
          <mxGeometry x="1064" y="622" width="68" height="31" as="geometry" />
        </mxCell>
        <mxCell id="GehNxyRLZ8iFV2p4zfdp-10" value="&lt;font style=&quot;font-size: 14px;&quot;&gt;Data&lt;/font&gt;" style="text;html=1;align=right;verticalAlign=middle;resizable=0;points=[];autosize=1;strokeColor=none;fillColor=none;fontSize=14;fontFamily=Google Sans;fontSource=https%3A%2F%2Ffonts.googleapis.com%2Fcss%3Ffamily%3DGoogle%2BSans;fontColor=#98A2AE;" parent="GehNxyRLZ8iFV2p4zfdp-1" vertex="1">
          <mxGeometry x="1264" y="565" width="48" height="29" as="geometry" />
        </mxCell>
        <mxCell id="GehNxyRLZ8iFV2p4zfdp-11" value="&lt;font color=&quot;#bec8d2&quot; style=&quot;font-size: 14px;&quot;&gt;container&lt;/font&gt;" style="text;html=1;align=right;verticalAlign=middle;resizable=0;points=[];autosize=1;strokeColor=none;fillColor=none;fontSize=14;fontFamily=Google Sans;fontSource=https%3A%2F%2Ffonts.googleapis.com%2Fcss%3Ffamily%3DGoogle%2BSans;" parent="GehNxyRLZ8iFV2p4zfdp-1" vertex="1">
          <mxGeometry x="1188" y="624" width="78" height="29" as="geometry" />
        </mxCell>
        <mxCell id="GehNxyRLZ8iFV2p4zfdp-12" value="" style="endArrow=none;dashed=1;html=1;dashPattern=1 3;strokeWidth=2;rounded=0;strokeColor=#EDF3F5;entryX=0.053;entryY=1.071;entryDx=0;entryDy=0;entryPerimeter=0;exitX=-0.008;exitY=0.094;exitDx=0;exitDy=0;exitPerimeter=0;fontFamily=Google Sans;fontSource=https%3A%2F%2Ffonts.googleapis.com%2Fcss%3Ffamily%3DGoogle%2BSans;" parent="GehNxyRLZ8iFV2p4zfdp-1" source="GehNxyRLZ8iFV2p4zfdp-7" target="GehNxyRLZ8iFV2p4zfdp-5" edge="1">
          <mxGeometry width="50" height="50" relative="1" as="geometry">
            <mxPoint x="1063" y="768" as="sourcePoint" />
            <mxPoint x="1113" y="718" as="targetPoint" />
            <Array as="points">
              <mxPoint x="1013" y="638" />
            </Array>
          </mxGeometry>
        </mxCell>
        <mxCell id="GehNxyRLZ8iFV2p4zfdp-13" value="&lt;i&gt;empty&lt;/i&gt;" style="rounded=1;whiteSpace=wrap;html=1;arcSize=50;fillColor=#EDF3F5;strokeColor=none;fontSize=14;align=right;spacingLeft=6;spacingRight=4;fontFamily=Google Sans;fontSource=https%3A%2F%2Ffonts.googleapis.com%2Fcss%3Ffamily%3DGoogle%2BSans;fontColor=#BEC8D2;" parent="GehNxyRLZ8iFV2p4zfdp-1" vertex="1">
          <mxGeometry x="1091" y="680" width="119.5" height="35" as="geometry" />
        </mxCell>
        <mxCell id="GehNxyRLZ8iFV2p4zfdp-14" value="&lt;i&gt;empty&lt;/i&gt;" style="rounded=1;whiteSpace=wrap;html=1;arcSize=50;fillColor=#EDF3F5;strokeColor=none;fontSize=14;align=right;spacingLeft=6;spacingRight=4;fontFamily=Google Sans;fontSource=https%3A%2F%2Ffonts.googleapis.com%2Fcss%3Ffamily%3DGoogle%2BSans;fontColor=#BEC8D2;" parent="GehNxyRLZ8iFV2p4zfdp-1" vertex="1">
          <mxGeometry x="1091" y="727" width="118.5" height="35" as="geometry" />
        </mxCell>
        <mxCell id="GehNxyRLZ8iFV2p4zfdp-15" value="" style="endArrow=none;dashed=1;html=1;dashPattern=1 3;strokeWidth=2;rounded=0;strokeColor=#EDF3F5;entryX=0.053;entryY=1.071;entryDx=0;entryDy=0;entryPerimeter=0;exitX=0;exitY=0.5;exitDx=0;exitDy=0;fontFamily=Google Sans;fontSource=https%3A%2F%2Ffonts.googleapis.com%2Fcss%3Ffamily%3DGoogle%2BSans;" parent="GehNxyRLZ8iFV2p4zfdp-1" source="GehNxyRLZ8iFV2p4zfdp-13" edge="1">
          <mxGeometry width="50" height="50" relative="1" as="geometry">
            <mxPoint x="1091" y="692" as="sourcePoint" />
            <mxPoint x="1070" y="653" as="targetPoint" />
            <Array as="points">
              <mxPoint x="1071" y="698" />
            </Array>
          </mxGeometry>
        </mxCell>
        <mxCell id="GehNxyRLZ8iFV2p4zfdp-16" value="" style="endArrow=none;dashed=1;html=1;dashPattern=1 3;strokeWidth=2;rounded=0;strokeColor=#EDF3F5;exitX=0;exitY=0.5;exitDx=0;exitDy=0;fontFamily=Google Sans;fontSource=https%3A%2F%2Ffonts.googleapis.com%2Fcss%3Ffamily%3DGoogle%2BSans;" parent="GehNxyRLZ8iFV2p4zfdp-1" source="GehNxyRLZ8iFV2p4zfdp-14" edge="1">
          <mxGeometry width="50" height="50" relative="1" as="geometry">
            <mxPoint x="1091" y="743" as="sourcePoint" />
            <mxPoint x="1071" y="698" as="targetPoint" />
            <Array as="points">
              <mxPoint x="1072" y="745" />
            </Array>
          </mxGeometry>
        </mxCell>
        <mxCell id="GehNxyRLZ8iFV2p4zfdp-17" value="" style="verticalLabelPosition=middle;verticalAlign=middle;html=1;shape=mxgraph.basic.rect;fillColor2=none;strokeWidth=1;size=16;indent=100;topLeftStyle=default;topRightStyle=rounded;strokeColor=none;fillColor=#BEC8D2;bottomRightStyle=rounded;labelPosition=center;align=center;spacing=0;spacingRight=3;fontColor=#FFFFFF;rotation=-180;horizontal=1;fontFamily=Google Sans;fontSource=https%3A%2F%2Ffonts.googleapis.com%2Fcss%3Ffamily%3DGoogle%2BSans;" parent="GehNxyRLZ8iFV2p4zfdp-1" vertex="1">
          <mxGeometry x="1091" y="680" width="44.5" height="35" as="geometry" />
        </mxCell>
        <mxCell id="GehNxyRLZ8iFV2p4zfdp-19" value="" style="endArrow=classic;html=1;rounded=0;strokeColor=#EDF3F5;strokeWidth=4;endFill=1;" parent="GehNxyRLZ8iFV2p4zfdp-1" edge="1">
          <mxGeometry width="50" height="50" relative="1" as="geometry">
            <mxPoint x="922" y="423" as="sourcePoint" />
            <mxPoint x="978" y="423.5" as="targetPoint" />
          </mxGeometry>
        </mxCell>
        <mxCell id="GehNxyRLZ8iFV2p4zfdp-20" value="" style="rounded=1;whiteSpace=wrap;html=1;arcSize=2;fillColor=none;strokeColor=default;fillStyle=dots;strokeWidth=2;perimeterSpacing=2;dashed=1;gradientColor=none;fontFamily=Google Sans;fontSource=https%3A%2F%2Ffonts.googleapis.com%2Fcss%3Ffamily%3DGoogle%2BSans;" parent="GehNxyRLZ8iFV2p4zfdp-1" vertex="1">
          <mxGeometry x="625" y="357" width="281" height="265" as="geometry" />
        </mxCell>
        <mxCell id="GehNxyRLZ8iFV2p4zfdp-21" value="" style="verticalLabelPosition=bottom;verticalAlign=top;html=1;shape=mxgraph.basic.rect;fillColor2=none;strokeWidth=1;size=5.19;indent=50;topLeftStyle=rounded;topRightStyle=rounded;strokeColor=none;fillColor=#273142;fillStyle=solid;fontFamily=Google Sans;fontSource=https%3A%2F%2Ffonts.googleapis.com%2Fcss%3Ffamily%3DGoogle%2BSans;" parent="GehNxyRLZ8iFV2p4zfdp-1" vertex="1">
          <mxGeometry x="625" y="357" width="281" height="32" as="geometry" />
        </mxCell>
        <mxCell id="GehNxyRLZ8iFV2p4zfdp-22" value="&lt;font color=&quot;#ffffff&quot;&gt;/ &lt;span style=&quot;font-weight: normal;&quot;&gt;&lt;font style=&quot;font-size: 14px;&quot;&gt;(root)&lt;/font&gt;&lt;/span&gt;&lt;/font&gt;" style="text;html=1;align=left;verticalAlign=middle;resizable=0;points=[];autosize=1;strokeColor=none;fillColor=none;fontSize=16;fontFamily=Google Sans;fontSource=https%3A%2F%2Ffonts.googleapis.com%2Fcss%3Ffamily%3DGoogle%2BSans;fontStyle=1" parent="GehNxyRLZ8iFV2p4zfdp-1" vertex="1">
          <mxGeometry x="629" y="356" width="62" height="31" as="geometry" />
        </mxCell>
        <mxCell id="GehNxyRLZ8iFV2p4zfdp-26" value="&lt;font style=&quot;font-size: 14px;&quot;&gt;Schema&lt;/font&gt;" style="text;html=1;align=right;verticalAlign=middle;resizable=0;points=[];autosize=1;strokeColor=none;fillColor=none;fontSize=14;fontFamily=Google Sans;fontSource=https%3A%2F%2Ffonts.googleapis.com%2Fcss%3Ffamily%3DGoogle%2BSans;fontColor=#98A2AE;" parent="GehNxyRLZ8iFV2p4zfdp-1" vertex="1">
          <mxGeometry x="833" y="357" width="69" height="29" as="geometry" />
        </mxCell>
        <mxCell id="GehNxyRLZ8iFV2p4zfdp-28" value="" style="endArrow=none;dashed=1;html=1;dashPattern=1 3;strokeWidth=2;rounded=0;strokeColor=#EDF3F5;entryX=0.053;entryY=1.071;entryDx=0;entryDy=0;entryPerimeter=0;exitX=-0.008;exitY=0.094;exitDx=0;exitDy=0;exitPerimeter=0;fontFamily=Google Sans;fontSource=https%3A%2F%2Ffonts.googleapis.com%2Fcss%3Ffamily%3DGoogle%2BSans;" parent="GehNxyRLZ8iFV2p4zfdp-1" target="GehNxyRLZ8iFV2p4zfdp-21" edge="1">
          <mxGeometry width="50" height="50" relative="1" as="geometry">
            <mxPoint x="661.3119999999999" y="429.9200000000001" as="sourcePoint" />
            <mxPoint x="703" y="510" as="targetPoint" />
            <Array as="points">
              <mxPoint x="640" y="430" />
            </Array>
          </mxGeometry>
        </mxCell>
        <mxCell id="HOPFhjxvUH-X9HnmUMg6-0" value="" style="endArrow=classic;html=1;rounded=0;strokeColor=#EDF3F5;strokeWidth=4;endFill=1;" parent="GehNxyRLZ8iFV2p4zfdp-1" edge="1">
          <mxGeometry width="50" height="50" relative="1" as="geometry">
            <mxPoint x="1143" y="492" as="sourcePoint" />
            <mxPoint x="1143" y="550.5" as="targetPoint" />
          </mxGeometry>
        </mxCell>
        <mxCell id="gSJmvJ6PIRXqt0e7jhyi-0" value="" style="rounded=1;whiteSpace=wrap;html=1;arcSize=2;fillColor=none;fontColor=#edf3f5;strokeColor=#98A2AE;dashed=1;strokeWidth=2;fontFamily=Google Sans;fontSource=https%3A%2F%2Ffonts.googleapis.com%2Fcss%3Ffamily%3DGoogle%2BSans;" parent="GehNxyRLZ8iFV2p4zfdp-1" vertex="1">
          <mxGeometry x="662" y="414" width="211" height="180" as="geometry" />
        </mxCell>
        <mxCell id="gSJmvJ6PIRXqt0e7jhyi-1" value="" style="verticalLabelPosition=bottom;verticalAlign=top;html=1;shape=mxgraph.basic.rect;fillColor2=none;strokeWidth=1;size=3.89;indent=99.13;topLeftStyle=rounded;topRightStyle=rounded;strokeColor=none;fillColor=#EDF3F5;fontFamily=Google Sans;fontSource=https%3A%2F%2Ffonts.googleapis.com%2Fcss%3Ffamily%3DGoogle%2BSans;" parent="GehNxyRLZ8iFV2p4zfdp-1" vertex="1">
          <mxGeometry x="662" y="414" width="211" height="32" as="geometry" />
        </mxCell>
        <mxCell id="gSJmvJ6PIRXqt0e7jhyi-2" value="&lt;font color=&quot;#001135&quot;&gt;uptime&lt;/font&gt;" style="text;html=1;align=left;verticalAlign=middle;resizable=0;points=[];autosize=1;strokeColor=none;fillColor=none;fontSize=16;fontFamily=Google Sans;fontSource=https%3A%2F%2Ffonts.googleapis.com%2Fcss%3Ffamily%3DGoogle%2BSans;fontStyle=1" parent="GehNxyRLZ8iFV2p4zfdp-1" vertex="1">
          <mxGeometry x="668" y="415" width="68" height="31" as="geometry" />
        </mxCell>
        <mxCell id="gSJmvJ6PIRXqt0e7jhyi-3" value="&lt;font style=&quot;font-size: 14px;&quot; color=&quot;#bec8d2&quot;&gt;container&lt;/font&gt;" style="text;html=1;align=right;verticalAlign=middle;resizable=0;points=[];autosize=1;strokeColor=none;fillColor=none;fontSize=14;fontFamily=Google Sans;fontSource=https%3A%2F%2Ffonts.googleapis.com%2Fcss%3Ffamily%3DGoogle%2BSans;" parent="GehNxyRLZ8iFV2p4zfdp-1" vertex="1">
          <mxGeometry x="792" y="417" width="78" height="29" as="geometry" />
        </mxCell>
        <mxCell id="gSJmvJ6PIRXqt0e7jhyi-4" value="Uptime" style="rounded=1;whiteSpace=wrap;html=1;arcSize=50;fillColor=none;strokeColor=#FFFFFF;fontSize=14;align=right;spacingLeft=6;dashed=1;fontColor=#FFFFFF;fontFamily=Google Sans;fontSource=https%3A%2F%2Ffonts.googleapis.com%2Fcss%3Ffamily%3DGoogle%2BSans;spacingRight=2;strokeWidth=1;" parent="GehNxyRLZ8iFV2p4zfdp-1" vertex="1">
          <mxGeometry x="695" y="473" width="121" height="35" as="geometry" />
        </mxCell>
        <mxCell id="gSJmvJ6PIRXqt0e7jhyi-5" value="Last Booted" style="rounded=1;whiteSpace=wrap;html=1;arcSize=50;fillColor=none;strokeColor=#FFFFFF;fontSize=14;align=right;spacingLeft=6;dashed=1;fontColor=#FFFFFF;fontFamily=Google Sans;fontSource=https%3A%2F%2Ffonts.googleapis.com%2Fcss%3Ffamily%3DGoogle%2BSans;spacingRight=2;" parent="GehNxyRLZ8iFV2p4zfdp-1" vertex="1">
          <mxGeometry x="695" y="520" width="121" height="35" as="geometry" />
        </mxCell>
        <mxCell id="gSJmvJ6PIRXqt0e7jhyi-6" value="" style="endArrow=none;dashed=1;html=1;dashPattern=1 3;strokeWidth=2;rounded=0;strokeColor=#EDF3F5;entryX=0.053;entryY=1.071;entryDx=0;entryDy=0;entryPerimeter=0;exitX=0;exitY=0.5;exitDx=0;exitDy=0;fontFamily=Google Sans;fontSource=https%3A%2F%2Ffonts.googleapis.com%2Fcss%3Ffamily%3DGoogle%2BSans;" parent="GehNxyRLZ8iFV2p4zfdp-1" source="gSJmvJ6PIRXqt0e7jhyi-4" edge="1">
          <mxGeometry width="50" height="50" relative="1" as="geometry">
            <mxPoint x="695" y="485" as="sourcePoint" />
            <mxPoint x="674" y="446" as="targetPoint" />
            <Array as="points">
              <mxPoint x="675" y="491" />
            </Array>
          </mxGeometry>
        </mxCell>
        <mxCell id="gSJmvJ6PIRXqt0e7jhyi-7" value="" style="endArrow=none;dashed=1;html=1;dashPattern=1 3;strokeWidth=2;rounded=0;strokeColor=#EDF3F5;exitX=0;exitY=0.5;exitDx=0;exitDy=0;fontFamily=Google Sans;fontSource=https%3A%2F%2Ffonts.googleapis.com%2Fcss%3Ffamily%3DGoogle%2BSans;" parent="GehNxyRLZ8iFV2p4zfdp-1" source="gSJmvJ6PIRXqt0e7jhyi-5" edge="1">
          <mxGeometry width="50" height="50" relative="1" as="geometry">
            <mxPoint x="695" y="536" as="sourcePoint" />
            <mxPoint x="675" y="491" as="targetPoint" />
            <Array as="points">
              <mxPoint x="676" y="538" />
            </Array>
          </mxGeometry>
        </mxCell>
        <mxCell id="gSJmvJ6PIRXqt0e7jhyi-8" value="" style="endArrow=none;html=1;rounded=1;entryX=0.25;entryY=0;entryDx=0;entryDy=0;exitX=0.25;exitY=1;exitDx=0;exitDy=0;dashed=1;strokeColor=#FFFFFF;strokeWidth=1;align=right;verticalAlign=middle;spacingLeft=6;spacingRight=2;arcSize=50;fontFamily=Google Sans;fontSource=https%3A%2F%2Ffonts.googleapis.com%2Fcss%3Ffamily%3DGoogle%2BSans;fontSize=14;fontColor=#FFFFFF;fillColor=none;" parent="GehNxyRLZ8iFV2p4zfdp-1" source="gSJmvJ6PIRXqt0e7jhyi-4" target="gSJmvJ6PIRXqt0e7jhyi-4" edge="1">
          <mxGeometry width="50" height="50" relative="1" as="geometry">
            <mxPoint x="689" y="523" as="sourcePoint" />
            <mxPoint x="739" y="473" as="targetPoint" />
          </mxGeometry>
        </mxCell>
        <mxCell id="gSJmvJ6PIRXqt0e7jhyi-9" value="field" style="text;html=1;align=center;verticalAlign=middle;resizable=0;points=[];autosize=1;strokeColor=none;fillColor=none;fontColor=#FFFFFF;fontFamily=Google Sans;fontSource=https%3A%2F%2Ffonts.googleapis.com%2Fcss%3Ffamily%3DGoogle%2BSans;textOpacity=50;fontSize=11;" parent="GehNxyRLZ8iFV2p4zfdp-1" vertex="1">
          <mxGeometry x="690" y="478" width="40" height="25" as="geometry" />
        </mxCell>
        <mxCell id="gSJmvJ6PIRXqt0e7jhyi-10" value="" style="endArrow=none;html=1;rounded=1;entryX=0.25;entryY=0;entryDx=0;entryDy=0;exitX=0.25;exitY=1;exitDx=0;exitDy=0;dashed=1;strokeColor=#FFFFFF;strokeWidth=1;align=right;verticalAlign=middle;spacingLeft=6;spacingRight=2;arcSize=50;fontFamily=Google Sans;fontSource=https%3A%2F%2Ffonts.googleapis.com%2Fcss%3Ffamily%3DGoogle%2BSans;fontSize=14;fontColor=#FFFFFF;fillColor=none;" parent="GehNxyRLZ8iFV2p4zfdp-1" edge="1">
          <mxGeometry width="50" height="50" relative="1" as="geometry">
            <mxPoint x="725" y="555" as="sourcePoint" />
            <mxPoint x="725" y="520" as="targetPoint" />
          </mxGeometry>
        </mxCell>
        <mxCell id="gSJmvJ6PIRXqt0e7jhyi-11" value="field" style="text;html=1;align=center;verticalAlign=middle;resizable=0;points=[];autosize=1;strokeColor=none;fillColor=none;fontColor=#FFFFFF;fontFamily=Google Sans;fontSource=https%3A%2F%2Ffonts.googleapis.com%2Fcss%3Ffamily%3DGoogle%2BSans;textOpacity=50;fontSize=11;" parent="GehNxyRLZ8iFV2p4zfdp-1" vertex="1">
          <mxGeometry x="690" y="525" width="40" height="25" as="geometry" />
        </mxCell>
        <mxCell id="gSJmvJ6PIRXqt0e7jhyi-12" value="" style="verticalLabelPosition=middle;verticalAlign=middle;html=1;shape=mxgraph.basic.rect;fillColor2=none;strokeWidth=1;size=16;indent=100;topLeftStyle=default;topRightStyle=rounded;strokeColor=none;fillColor=#BEC8D2;bottomRightStyle=rounded;labelPosition=center;align=center;spacing=0;spacingRight=3;fontColor=#FFFFFF;rotation=-180;horizontal=1;fontFamily=Google Sans;fontSource=https%3A%2F%2Ffonts.googleapis.com%2Fcss%3Ffamily%3DGoogle%2BSans;" parent="GehNxyRLZ8iFV2p4zfdp-1" vertex="1">
          <mxGeometry x="1091" y="727" width="44.5" height="35" as="geometry" />
        </mxCell>
        <mxCell id="gSJmvJ6PIRXqt0e7jhyi-13" value="uptime" style="text;html=1;align=center;verticalAlign=middle;resizable=0;points=[];autosize=1;strokeColor=none;fillColor=none;fontColor=#4D5766;fontFamily=Google Sans;fontSource=https%3A%2F%2Ffonts.googleapis.com%2Fcss%3Ffamily%3DGoogle%2BSans;fontSize=11;" parent="GehNxyRLZ8iFV2p4zfdp-1" vertex="1">
          <mxGeometry x="1087.25" y="685.5" width="53" height="25" as="geometry" />
        </mxCell>
        <mxCell id="gSJmvJ6PIRXqt0e7jhyi-14" value="last&lt;br&gt;booted" style="text;html=1;align=center;verticalAlign=middle;resizable=0;points=[];autosize=1;strokeColor=none;fillColor=none;fontColor=#4D5766;fontFamily=Google Sans;fontSource=https%3A%2F%2Ffonts.googleapis.com%2Fcss%3Ffamily%3DGoogle%2BSans;fontSize=11;" parent="GehNxyRLZ8iFV2p4zfdp-1" vertex="1">
          <mxGeometry x="1087.25" y="725" width="54" height="38" as="geometry" />
        </mxCell>
        <mxCell id="kmpc25h0Z3QGr45cMWCJ-0" value="" style="ellipse;whiteSpace=wrap;html=1;strokeColor=none;aspect=fixed;fillColor=light-dark(#edf3f5, #ededed);" parent="GehNxyRLZ8iFV2p4zfdp-1" vertex="1">
          <mxGeometry x="933.5" y="412" width="22" height="22" as="geometry" />
        </mxCell>
        <mxCell id="kmpc25h0Z3QGr45cMWCJ-1" value="1" style="text;html=1;align=center;verticalAlign=middle;resizable=0;points=[];autosize=1;strokeColor=none;fillColor=none;fontColor=#4D5766;" parent="GehNxyRLZ8iFV2p4zfdp-1" vertex="1">
          <mxGeometry x="932" y="410" width="25" height="26" as="geometry" />
        </mxCell>
        <mxCell id="kmpc25h0Z3QGr45cMWCJ-3" value="" style="ellipse;whiteSpace=wrap;html=1;strokeColor=none;aspect=fixed;fillColor=light-dark(#edf3f5, #ededed);" parent="GehNxyRLZ8iFV2p4zfdp-1" vertex="1">
          <mxGeometry x="1132.75" y="503" width="22" height="22" as="geometry" />
        </mxCell>
        <mxCell id="kmpc25h0Z3QGr45cMWCJ-4" value="2" style="text;html=1;align=center;verticalAlign=middle;resizable=0;points=[];autosize=1;strokeColor=none;fillColor=none;fontColor=#4D5766;" parent="GehNxyRLZ8iFV2p4zfdp-1" vertex="1">
          <mxGeometry x="1131.25" y="501" width="25" height="26" as="geometry" />
        </mxCell>
      </root>
    </mxGraphModel>
  </diagram>
  <diagram name="[3] getting data" id="rAWPxzZqD4qCyH_U_A5K">
    <mxGraphModel dx="1885" dy="1050" grid="0" gridSize="2" guides="1" tooltips="1" connect="1" arrows="1" fold="1" page="1" pageScale="1" pageWidth="3300" pageHeight="4681" background="#4D5766" math="0" shadow="0">
      <root>
        <mxCell id="PbwmE7_wsX5L62ESVcHm-0" />
        <mxCell id="PbwmE7_wsX5L62ESVcHm-1" parent="PbwmE7_wsX5L62ESVcHm-0" />
        <mxCell id="PbwmE7_wsX5L62ESVcHm-2" value="" style="rounded=1;whiteSpace=wrap;html=1;arcSize=2;fillColor=#001135;" vertex="1" parent="PbwmE7_wsX5L62ESVcHm-1">
          <mxGeometry x="835" y="384" width="633" height="91" as="geometry" />
        </mxCell>
        <mxCell id="PbwmE7_wsX5L62ESVcHm-3" value="&lt;div style=&quot;line-height: 20px; white-space-collapse: preserve; color: rgb(204, 202, 194);&quot;&gt;&lt;div&gt;&lt;div style=&quot;line-height: 20px;&quot;&gt;&lt;div style=&quot;line-height: 21px;&quot;&gt;&lt;div&gt;&lt;span&gt;uptime_container.last_booted &lt;span style=&quot;color: rgb(242, 158, 116);&quot;&gt;=&lt;/span&gt; (&lt;/span&gt;&lt;/div&gt;&lt;div&gt;&lt;span&gt;    &lt;span style=&quot;color: #5ccfe6;font-style: italic;&quot;&gt;self&lt;/span&gt;._last_booted_data.system.&lt;span style=&quot;color: #ffd173;&quot;&gt;get&lt;/span&gt;().information.&lt;span style=&quot;color: #ffd173;&quot;&gt;get&lt;/span&gt;().last_booted&lt;/span&gt;&lt;/div&gt;&lt;div&gt;&lt;span&gt;)&lt;/span&gt;&lt;/div&gt;&lt;/div&gt;&lt;/div&gt;&lt;/div&gt;&lt;/div&gt;" style="text;html=1;align=left;verticalAlign=middle;resizable=0;points=[];autosize=1;strokeColor=none;fillColor=none;fontSize=14;fontFamily=Fira Code;fontSource=https%3A%2F%2Ffonts.googleapis.com%2Fcss%3Ffamily%3DFira%2BCode;labelBackgroundColor=none;" vertex="1" parent="PbwmE7_wsX5L62ESVcHm-1">
          <mxGeometry x="862" y="393" width="598" height="75" as="geometry" />
        </mxCell>
        <mxCell id="PbwmE7_wsX5L62ESVcHm-4" value="" style="rounded=1;whiteSpace=wrap;html=1;arcSize=2;fillColor=#001135;strokeColor=none;fillStyle=auto;strokeWidth=0;perimeterSpacing=2;fontFamily=Google Sans;fontSource=https%3A%2F%2Ffonts.googleapis.com%2Fcss%3Ffamily%3DGoogle%2BSans;" vertex="1" parent="PbwmE7_wsX5L62ESVcHm-1">
          <mxGeometry x="996" y="565" width="320" height="371" as="geometry" />
        </mxCell>
        <mxCell id="PbwmE7_wsX5L62ESVcHm-5" value="" style="verticalLabelPosition=bottom;verticalAlign=top;html=1;shape=mxgraph.basic.rect;fillColor2=none;strokeWidth=1;size=5.19;indent=50;topLeftStyle=rounded;topRightStyle=rounded;strokeColor=none;fillColor=#273142;fontFamily=Google Sans;fontSource=https%3A%2F%2Ffonts.googleapis.com%2Fcss%3Ffamily%3DGoogle%2BSans;" vertex="1" parent="PbwmE7_wsX5L62ESVcHm-1">
          <mxGeometry x="996" y="565" width="320" height="32" as="geometry" />
        </mxCell>
        <mxCell id="PbwmE7_wsX5L62ESVcHm-6" value="&lt;font color=&quot;#ffffff&quot;&gt;/ &lt;span style=&quot;font-weight: normal;&quot;&gt;&lt;font style=&quot;font-size: 14px;&quot;&gt;(root)&lt;/font&gt;&lt;/span&gt;&lt;/font&gt;" style="text;html=1;align=left;verticalAlign=middle;resizable=0;points=[];autosize=1;strokeColor=none;fillColor=none;fontSize=16;fontFamily=Google Sans;fontSource=https%3A%2F%2Ffonts.googleapis.com%2Fcss%3Ffamily%3DGoogle%2BSans;fontStyle=1" vertex="1" parent="PbwmE7_wsX5L62ESVcHm-1">
          <mxGeometry x="1002" y="564" width="62" height="31" as="geometry" />
        </mxCell>
        <mxCell id="PbwmE7_wsX5L62ESVcHm-10" value="&lt;font style=&quot;font-size: 14px;&quot;&gt;Data&lt;/font&gt;" style="text;html=1;align=right;verticalAlign=middle;resizable=0;points=[];autosize=1;strokeColor=none;fillColor=none;fontSize=14;fontFamily=Google Sans;fontSource=https%3A%2F%2Ffonts.googleapis.com%2Fcss%3Ffamily%3DGoogle%2BSans;fontColor=#98A2AE;" vertex="1" parent="PbwmE7_wsX5L62ESVcHm-1">
          <mxGeometry x="1264" y="565" width="48" height="29" as="geometry" />
        </mxCell>
        <mxCell id="PbwmE7_wsX5L62ESVcHm-12" value="" style="endArrow=none;dashed=1;html=1;dashPattern=1 3;strokeWidth=2;rounded=0;strokeColor=#FFFB00;entryX=0.053;entryY=1.071;entryDx=0;entryDy=0;entryPerimeter=0;exitX=0.002;exitY=0.519;exitDx=0;exitDy=0;exitPerimeter=0;fontFamily=Google Sans;fontSource=https%3A%2F%2Ffonts.googleapis.com%2Fcss%3Ffamily%3DGoogle%2BSans;" edge="1" parent="PbwmE7_wsX5L62ESVcHm-1" source="J5AACiJMo1dHyXStrU13-1" target="PbwmE7_wsX5L62ESVcHm-5">
          <mxGeometry width="50" height="50" relative="1" as="geometry">
            <mxPoint x="1063" y="768" as="sourcePoint" />
            <mxPoint x="1113" y="718" as="targetPoint" />
            <Array as="points">
              <mxPoint x="1013" y="631" />
            </Array>
          </mxGeometry>
        </mxCell>
        <mxCell id="J5AACiJMo1dHyXStrU13-0" value="" style="rounded=1;whiteSpace=wrap;html=1;arcSize=2;fillColor=#273142;fontColor=#edf3f5;strokeColor=none;fillStyle=solid;fontFamily=Google Sans;fontSource=https%3A%2F%2Ffonts.googleapis.com%2Fcss%3Ffamily%3DGoogle%2BSans;" vertex="1" parent="PbwmE7_wsX5L62ESVcHm-1">
          <mxGeometry x="1028" y="614" width="262" height="300" as="geometry" />
        </mxCell>
        <mxCell id="J5AACiJMo1dHyXStrU13-1" value="" style="verticalLabelPosition=bottom;verticalAlign=top;html=1;shape=mxgraph.basic.rect;fillColor2=none;strokeWidth=1;size=3.89;indent=99.13;topLeftStyle=rounded;topRightStyle=rounded;strokeColor=none;fillColor=#EDF3F5;fontFamily=Google Sans;fontSource=https%3A%2F%2Ffonts.googleapis.com%2Fcss%3Ffamily%3DGoogle%2BSans;" vertex="1" parent="PbwmE7_wsX5L62ESVcHm-1">
          <mxGeometry x="1028" y="614" width="262" height="32" as="geometry" />
        </mxCell>
        <mxCell id="J5AACiJMo1dHyXStrU13-2" value="&lt;font color=&quot;#001135&quot;&gt;system&lt;/font&gt;" style="text;html=1;align=left;verticalAlign=middle;resizable=0;points=[];autosize=1;strokeColor=none;fillColor=none;fontSize=16;fontFamily=Google Sans;fontSource=https%3A%2F%2Ffonts.googleapis.com%2Fcss%3Ffamily%3DGoogle%2BSans;fontStyle=1" vertex="1" parent="PbwmE7_wsX5L62ESVcHm-1">
          <mxGeometry x="1034" y="615" width="70" height="31" as="geometry" />
        </mxCell>
        <mxCell id="J5AACiJMo1dHyXStrU13-3" value="&lt;font color=&quot;#bec8d2&quot; style=&quot;font-size: 14px;&quot;&gt;container&lt;/font&gt;" style="text;html=1;align=right;verticalAlign=middle;resizable=0;points=[];autosize=1;strokeColor=none;fillColor=none;fontSize=14;fontFamily=Google Sans;fontSource=https%3A%2F%2Ffonts.googleapis.com%2Fcss%3Ffamily%3DGoogle%2BSans;" vertex="1" parent="PbwmE7_wsX5L62ESVcHm-1">
          <mxGeometry x="1209" y="617" width="78" height="29" as="geometry" />
        </mxCell>
        <mxCell id="J5AACiJMo1dHyXStrU13-4" value="&lt;i&gt;&amp;lt;container&amp;gt;&lt;/i&gt;" style="rounded=1;whiteSpace=wrap;html=1;arcSize=13;fillColor=#EDF3F5;strokeColor=none;fontSize=14;align=right;spacingLeft=6;spacingRight=4;fontFamily=Google Sans;fontSource=https%3A%2F%2Ffonts.googleapis.com%2Fcss%3Ffamily%3DGoogle%2BSans;fontColor=#BEC8D2;" vertex="1" parent="PbwmE7_wsX5L62ESVcHm-1">
          <mxGeometry x="1061" y="673" width="119.5" height="35" as="geometry" />
        </mxCell>
        <mxCell id="J5AACiJMo1dHyXStrU13-6" value="" style="endArrow=none;dashed=1;html=1;dashPattern=1 3;strokeWidth=2;rounded=0;strokeColor=#EDF3F5;entryX=0.053;entryY=1.071;entryDx=0;entryDy=0;entryPerimeter=0;exitX=0;exitY=0.5;exitDx=0;exitDy=0;fontFamily=Google Sans;fontSource=https%3A%2F%2Ffonts.googleapis.com%2Fcss%3Ffamily%3DGoogle%2BSans;" edge="1" parent="PbwmE7_wsX5L62ESVcHm-1" source="J5AACiJMo1dHyXStrU13-4">
          <mxGeometry width="50" height="50" relative="1" as="geometry">
            <mxPoint x="1061" y="685" as="sourcePoint" />
            <mxPoint x="1040" y="646" as="targetPoint" />
            <Array as="points">
              <mxPoint x="1040" y="691" />
            </Array>
          </mxGeometry>
        </mxCell>
        <mxCell id="J5AACiJMo1dHyXStrU13-7" value="" style="endArrow=none;dashed=1;html=1;dashPattern=1 3;strokeWidth=2;rounded=0;strokeColor=#FFFB00;exitX=0;exitY=0.5;exitDx=0;exitDy=0;fontFamily=Google Sans;fontSource=https%3A%2F%2Ffonts.googleapis.com%2Fcss%3Ffamily%3DGoogle%2BSans;" edge="1" parent="PbwmE7_wsX5L62ESVcHm-1">
          <mxGeometry width="50" height="50" relative="1" as="geometry">
            <mxPoint x="1061" y="737.5" as="sourcePoint" />
            <mxPoint x="1040" y="646" as="targetPoint" />
            <Array as="points">
              <mxPoint x="1040" y="738" />
            </Array>
          </mxGeometry>
        </mxCell>
        <mxCell id="PbwmE7_wsX5L62ESVcHm-7" value="" style="rounded=1;whiteSpace=wrap;html=1;arcSize=2;fillColor=#98a2ae;fontColor=#edf3f5;strokeColor=none;fillStyle=solid;fontFamily=Google Sans;fontSource=https%3A%2F%2Ffonts.googleapis.com%2Fcss%3Ffamily%3DGoogle%2BSans;" vertex="1" parent="PbwmE7_wsX5L62ESVcHm-1">
          <mxGeometry x="1061" y="721" width="211" height="180" as="geometry" />
        </mxCell>
        <mxCell id="PbwmE7_wsX5L62ESVcHm-8" value="" style="verticalLabelPosition=bottom;verticalAlign=top;html=1;shape=mxgraph.basic.rect;fillColor2=none;strokeWidth=1;size=3.89;indent=99.13;topLeftStyle=rounded;topRightStyle=rounded;strokeColor=none;fillColor=#EDF3F5;fontFamily=Google Sans;fontSource=https%3A%2F%2Ffonts.googleapis.com%2Fcss%3Ffamily%3DGoogle%2BSans;" vertex="1" parent="PbwmE7_wsX5L62ESVcHm-1">
          <mxGeometry x="1061" y="721" width="211" height="32" as="geometry" />
        </mxCell>
        <mxCell id="PbwmE7_wsX5L62ESVcHm-9" value="&lt;font color=&quot;#001135&quot;&gt;information&lt;/font&gt;" style="text;html=1;align=left;verticalAlign=middle;resizable=0;points=[];autosize=1;strokeColor=none;fillColor=none;fontSize=16;fontFamily=Google Sans;fontSource=https%3A%2F%2Ffonts.googleapis.com%2Fcss%3Ffamily%3DGoogle%2BSans;fontStyle=1" vertex="1" parent="PbwmE7_wsX5L62ESVcHm-1">
          <mxGeometry x="1067" y="722" width="101" height="31" as="geometry" />
        </mxCell>
        <mxCell id="PbwmE7_wsX5L62ESVcHm-11" value="&lt;font color=&quot;#bec8d2&quot; style=&quot;font-size: 14px;&quot;&gt;container&lt;/font&gt;" style="text;html=1;align=right;verticalAlign=middle;resizable=0;points=[];autosize=1;strokeColor=none;fillColor=none;fontSize=14;fontFamily=Google Sans;fontSource=https%3A%2F%2Ffonts.googleapis.com%2Fcss%3Ffamily%3DGoogle%2BSans;" vertex="1" parent="PbwmE7_wsX5L62ESVcHm-1">
          <mxGeometry x="1191" y="724" width="78" height="29" as="geometry" />
        </mxCell>
        <mxCell id="PbwmE7_wsX5L62ESVcHm-13" value="&lt;i&gt;...&lt;/i&gt;" style="rounded=1;whiteSpace=wrap;html=1;arcSize=50;fillColor=#EDF3F5;strokeColor=none;fontSize=14;align=right;spacingLeft=6;spacingRight=4;fontFamily=Google Sans;fontSource=https%3A%2F%2Ffonts.googleapis.com%2Fcss%3Ffamily%3DGoogle%2BSans;fontColor=#BEC8D2;" vertex="1" parent="PbwmE7_wsX5L62ESVcHm-1">
          <mxGeometry x="1094" y="780" width="119.5" height="35" as="geometry" />
        </mxCell>
        <mxCell id="PbwmE7_wsX5L62ESVcHm-14" value="&lt;i&gt;empty&lt;/i&gt;" style="rounded=1;whiteSpace=wrap;html=1;arcSize=50;fillColor=#EDF3F5;strokeColor=none;fontSize=14;align=right;spacingLeft=6;spacingRight=4;fontFamily=Google Sans;fontSource=https%3A%2F%2Ffonts.googleapis.com%2Fcss%3Ffamily%3DGoogle%2BSans;fontColor=#BEC8D2;" vertex="1" parent="PbwmE7_wsX5L62ESVcHm-1">
          <mxGeometry x="1094" y="827" width="118.5" height="35" as="geometry" />
        </mxCell>
        <mxCell id="PbwmE7_wsX5L62ESVcHm-15" value="" style="endArrow=none;dashed=1;html=1;dashPattern=1 3;strokeWidth=2;rounded=0;strokeColor=#EDF3F5;exitX=0;exitY=0.5;exitDx=0;exitDy=0;fontFamily=Google Sans;fontSource=https%3A%2F%2Ffonts.googleapis.com%2Fcss%3Ffamily%3DGoogle%2BSans;" edge="1" parent="PbwmE7_wsX5L62ESVcHm-1" source="PbwmE7_wsX5L62ESVcHm-13">
          <mxGeometry width="50" height="50" relative="1" as="geometry">
            <mxPoint x="1094" y="792" as="sourcePoint" />
            <mxPoint x="1074" y="754" as="targetPoint" />
            <Array as="points">
              <mxPoint x="1074" y="797" />
            </Array>
          </mxGeometry>
        </mxCell>
        <mxCell id="PbwmE7_wsX5L62ESVcHm-16" value="" style="endArrow=none;dashed=1;html=1;dashPattern=1 3;strokeWidth=2;rounded=0;strokeColor=#FFFB00;exitX=0;exitY=0.5;exitDx=0;exitDy=0;fontFamily=Google Sans;fontSource=https%3A%2F%2Ffonts.googleapis.com%2Fcss%3Ffamily%3DGoogle%2BSans;" edge="1" parent="PbwmE7_wsX5L62ESVcHm-1" source="PbwmE7_wsX5L62ESVcHm-14">
          <mxGeometry width="50" height="50" relative="1" as="geometry">
            <mxPoint x="1094" y="843" as="sourcePoint" />
            <mxPoint x="1074" y="753" as="targetPoint" />
            <Array as="points">
              <mxPoint x="1074" y="845" />
            </Array>
          </mxGeometry>
        </mxCell>
        <mxCell id="PbwmE7_wsX5L62ESVcHm-17" value="" style="verticalLabelPosition=middle;verticalAlign=middle;html=1;shape=mxgraph.basic.rect;fillColor2=none;strokeWidth=1;size=16;indent=100;topLeftStyle=default;topRightStyle=rounded;strokeColor=none;fillColor=#BEC8D2;bottomRightStyle=rounded;labelPosition=center;align=center;spacing=0;spacingRight=3;fontColor=#FFFFFF;rotation=-180;horizontal=1;fontFamily=Google Sans;fontSource=https%3A%2F%2Ffonts.googleapis.com%2Fcss%3Ffamily%3DGoogle%2BSans;" vertex="1" parent="PbwmE7_wsX5L62ESVcHm-1">
          <mxGeometry x="1094" y="780" width="44.5" height="35" as="geometry" />
        </mxCell>
        <mxCell id="PbwmE7_wsX5L62ESVcHm-37" value="" style="verticalLabelPosition=middle;verticalAlign=middle;html=1;shape=mxgraph.basic.rect;fillColor2=none;strokeWidth=1;size=16;indent=100;topLeftStyle=default;topRightStyle=rounded;strokeColor=none;fillColor=#BEC8D2;bottomRightStyle=rounded;labelPosition=center;align=center;spacing=0;spacingRight=3;fontColor=#FFFFFF;rotation=-180;horizontal=1;fontFamily=Google Sans;fontSource=https%3A%2F%2Ffonts.googleapis.com%2Fcss%3Ffamily%3DGoogle%2BSans;" vertex="1" parent="PbwmE7_wsX5L62ESVcHm-1">
          <mxGeometry x="1094" y="827" width="44.5" height="35" as="geometry" />
        </mxCell>
        <mxCell id="PbwmE7_wsX5L62ESVcHm-38" value="..." style="text;html=1;align=center;verticalAlign=middle;resizable=0;points=[];autosize=1;strokeColor=none;fillColor=none;fontColor=#4D5766;fontFamily=Google Sans;fontSource=https%3A%2F%2Ffonts.googleapis.com%2Fcss%3Ffamily%3DGoogle%2BSans;fontSize=11;" vertex="1" parent="PbwmE7_wsX5L62ESVcHm-1">
          <mxGeometry x="1104.25" y="785.5" width="26" height="25" as="geometry" />
        </mxCell>
        <mxCell id="PbwmE7_wsX5L62ESVcHm-39" value="last&lt;br&gt;booted" style="text;html=1;align=center;verticalAlign=middle;resizable=0;points=[];autosize=1;strokeColor=none;fillColor=none;fontColor=#4D5766;fontFamily=Google Sans;fontSource=https%3A%2F%2Ffonts.googleapis.com%2Fcss%3Ffamily%3DGoogle%2BSans;fontSize=11;" vertex="1" parent="PbwmE7_wsX5L62ESVcHm-1">
          <mxGeometry x="1090.25" y="825" width="54" height="38" as="geometry" />
        </mxCell>
        <mxCell id="dL6e4hyIehQzxif3XudJ-0" value="" style="endArrow=classic;html=1;rounded=0;strokeColor=#EDF3F5;strokeWidth=2;endFill=1;" edge="1" parent="PbwmE7_wsX5L62ESVcHm-1">
          <mxGeometry width="50" height="50" relative="1" as="geometry">
            <mxPoint x="952" y="616.75" as="sourcePoint" />
            <mxPoint x="1008" y="617.25" as="targetPoint" />
          </mxGeometry>
        </mxCell>
        <mxCell id="GHaXBHU6Avzo5i-Zp-DJ-0" value="&lt;span style=&quot;color: rgb(204, 202, 194); white-space-collapse: preserve;&quot;&gt;system.&lt;/span&gt;&lt;span style=&quot;white-space-collapse: preserve; color: rgb(255, 209, 115);&quot;&gt;get&lt;/span&gt;&lt;span style=&quot;color: rgb(204, 202, 194); white-space-collapse: preserve;&quot;&gt;()&lt;/span&gt;" style="text;html=1;align=left;verticalAlign=middle;resizable=0;points=[];autosize=1;strokeColor=none;fillColor=none;fontSize=12;fontFamily=Fira Code;fontSource=https%3A%2F%2Ffonts.googleapis.com%2Fcss%3Ffamily%3DFira%2BCode;fontColor=#FFFFFF;" vertex="1" parent="PbwmE7_wsX5L62ESVcHm-1">
          <mxGeometry x="856" y="604" width="104" height="26" as="geometry" />
        </mxCell>
        <mxCell id="GHaXBHU6Avzo5i-Zp-DJ-1" value="" style="endArrow=classic;html=1;rounded=0;strokeColor=#EDF3F5;strokeWidth=2;endFill=1;" edge="1" parent="PbwmE7_wsX5L62ESVcHm-1">
          <mxGeometry width="50" height="50" relative="1" as="geometry">
            <mxPoint x="978" y="720.75" as="sourcePoint" />
            <mxPoint x="1034" y="721.25" as="targetPoint" />
          </mxGeometry>
        </mxCell>
        <mxCell id="GHaXBHU6Avzo5i-Zp-DJ-2" value="&lt;span style=&quot;color: rgb(204, 202, 194); white-space-collapse: preserve;&quot;&gt;information.&lt;/span&gt;&lt;span style=&quot;white-space-collapse: preserve; color: rgb(255, 209, 115);&quot;&gt;get&lt;/span&gt;&lt;span style=&quot;color: rgb(204, 202, 194); white-space-collapse: preserve;&quot;&gt;()&lt;/span&gt;" style="text;html=1;align=left;verticalAlign=middle;resizable=0;points=[];autosize=1;strokeColor=none;fillColor=none;fontSize=12;fontFamily=Fira Code;fontSource=https%3A%2F%2Ffonts.googleapis.com%2Fcss%3Ffamily%3DFira%2BCode;fontColor=#FFFFFF;" vertex="1" parent="PbwmE7_wsX5L62ESVcHm-1">
          <mxGeometry x="848" y="708" width="140" height="26" as="geometry" />
        </mxCell>
        <mxCell id="IFZbZropjFjRWIEqiJi6-0" value="" style="endArrow=classic;html=1;rounded=0;strokeColor=#EDF3F5;strokeWidth=4;endFill=1;" edge="1" parent="PbwmE7_wsX5L62ESVcHm-1">
          <mxGeometry width="50" height="50" relative="1" as="geometry">
            <mxPoint x="1143" y="492" as="sourcePoint" />
            <mxPoint x="1143" y="550.5" as="targetPoint" />
          </mxGeometry>
        </mxCell>
      </root>
    </mxGraphModel>
  </diagram>
</mxfile>
